Figtree-Black.ufo
<glyph name="exclam" format="2">
  <advance width="326"/>
  <unicode hex="0021"/>
  <outline>
    <contour>
      <point x="78" y="251" type="line"/>
      <point x="248" y="251" type="line"/>
      <point x="263" y="700" type="line"/>
      <point x="63" y="700" type="line"/>
    </contour>
    <contour>
      <point x="163" y="-16" type="curve" smooth="yes"/>
      <point x="219" y="-16"/>
      <point x="266" y="31"/>
      <point x="266" y="87" type="curve" smooth="yes"/>
      <point x="266" y="143"/>
      <point x="219" y="190"/>
      <point x="163" y="190" type="curve" smooth="yes"/>
      <point x="107" y="190"/>
      <point x="60" y="143"/>
      <point x="60" y="87" type="curve" smooth="yes"/>
      <point x="60" y="31"/>
      <point x="107" y="-16"/>
    </contour>
  </outline>
</glyph>
<glyph name="numbersign" format="2">
  <advance width="633"/>
  <unicode hex="0023"/>
  <outline>
    <contour>
      <point x="303" y="0" type="line"/>
      <point x="430" y="0" type="line"/>
      <point x="540" y="700" type="line"/>
      <point x="413" y="700" type="line"/>
    </contour>
    <contour>
      <point x="10" y="169" type="line"/>
      <point x="572" y="169" type="line"/>
      <point x="590" y="295" type="line"/>
      <point x="28" y="295" type="line"/>
    </contour>
    <contour>
      <point x="98" y="0" type="line"/>
      <point x="225" y="0" type="line"/>
      <point x="335" y="700" type="line"/>
      <point x="208" y="700" type="line"/>
    </contour>
    <contour>
      <point x="38" y="373" type="line"/>
      <point x="600" y="373" type="line"/>
      <point x="623" y="500" type="line"/>
      <point x="61" y="500" type="line"/>
    </contour>
  </outline>
</glyph>
<glyph name="dollar" format="2">
  <advance width="546"/>
  <unicode hex="0024"/>
  <outline>
    <contour>
      <point x="277" y="24" type="curve" smooth="yes"/>
      <point x="425" y="24"/>
      <point x="514" y="94"/>
      <point x="514" y="218" type="curve" smooth="yes"/>
      <point x="514" y="308"/>
      <point x="457" y="383"/>
      <point x="361" y="408" type="curve" smooth="yes"/>
      <point x="266" y="433" type="line" smooth="yes"/>
      <point x="232" y="442"/>
      <point x="214" y="458"/>
      <point x="214" y="480" type="curve" smooth="yes"/>
      <point x="214" y="514"/>
      <point x="237" y="533"/>
      <point x="277" y="533" type="curve" smooth="yes"/>
      <point x="320" y="533"/>
      <point x="344" y="502"/>
      <point x="350" y="479" type="curve"/>
      <point x="515" y="526" type="line"/>
      <point x="472" y="633"/>
      <point x="395" y="676"/>
      <point x="277" y="676" type="curve" smooth="yes"/>
      <point x="129" y="676"/>
      <point x="43" y="603"/>
      <point x="43" y="480" type="curve" smooth="yes"/>
      <point x="43" y="385"/>
      <point x="99" y="317"/>
      <point x="197" y="292" type="curve" smooth="yes"/>
      <point x="292" y="268" type="line" smooth="yes"/>
      <point x="324" y="260"/>
      <point x="339" y="239"/>
      <point x="339" y="219" type="curve" smooth="yes"/>
      <point x="339" y="187"/>
      <point x="308" y="166"/>
      <point x="275" y="167" type="curve" smooth="yes"/>
      <point x="232" y="169"/>
      <point x="206" y="193"/>
      <point x="196" y="223" type="curve"/>
      <point x="30" y="177" type="line"/>
      <point x="43" y="95"/>
      <point x="159" y="24"/>
    </contour>
    <contour>
      <point x="208" y="-103" type="line"/>
      <point x="352" y="-103" type="line"/>
      <point x="352" y="780" type="line"/>
      <point x="208" y="780" type="line"/>
    </contour>
  </outline>
</glyph>
<glyph name="percent" format="2">
  <advance width="838"/>
  <unicode hex="0025"/>
  <outline>
    <contour>
      <point x="83" y="0" type="line"/>
      <point x="248" y="0" type="line"/>
      <point x="748" y="700" type="line"/>
      <point x="580" y="700" type="line"/>
    </contour>
    <contour>
      <point x="634" y="-15" type="curve" smooth="yes"/>
      <point x="733" y="-15"/>
      <point x="803" y="60"/>
      <point x="803" y="165" type="curve" smooth="yes"/>
      <point x="803" y="270"/>
      <point x="733" y="345"/>
      <point x="634" y="345" type="curve" smooth="yes"/>
      <point x="535" y="345"/>
      <point x="465" y="270"/>
      <point x="465" y="165" type="curve" smooth="yes"/>
      <point x="465" y="60"/>
      <point x="535" y="-15"/>
    </contour>
    <contour>
      <point x="634" y="96" type="curve" smooth="yes"/>
      <point x="602" y="96"/>
      <point x="581" y="126"/>
      <point x="581" y="165" type="curve" smooth="yes"/>
      <point x="581" y="204"/>
      <point x="602" y="234"/>
      <point x="634" y="234" type="curve" smooth="yes"/>
      <point x="666" y="234"/>
      <point x="687" y="204"/>
      <point x="687" y="165" type="curve" smooth="yes"/>
      <point x="687" y="126"/>
      <point x="666" y="96"/>
    </contour>
    <contour>
      <point x="204" y="356" type="curve" smooth="yes"/>
      <point x="303" y="356"/>
      <point x="373" y="431"/>
      <point x="373" y="536" type="curve" smooth="yes"/>
      <point x="373" y="641"/>
      <point x="303" y="716"/>
      <point x="204" y="716" type="curve" smooth="yes"/>
      <point x="105" y="716"/>
      <point x="35" y="641"/>
      <point x="35" y="536" type="curve" smooth="yes"/>
      <point x="35" y="431"/>
      <point x="105" y="356"/>
    </contour>
    <contour>
      <point x="204" y="467" type="curve" smooth="yes"/>
      <point x="172" y="467"/>
      <point x="151" y="497"/>
      <point x="151" y="536" type="curve" smooth="yes"/>
      <point x="151" y="575"/>
      <point x="172" y="605"/>
      <point x="204" y="605" type="curve" smooth="yes"/>
      <point x="236" y="605"/>
      <point x="257" y="575"/>
      <point x="257" y="536" type="curve" smooth="yes"/>
      <point x="257" y="497"/>
      <point x="236" y="467"/>
    </contour>
  </outline>
</glyph>
<glyph name="ampersand" format="2">
  <advance width="651"/>
  <unicode hex="0026"/>
  <outline>
    <contour>
      <point x="249" y="-12" type="curve" smooth="yes"/>
      <point x="477" y="-12"/>
      <point x="637" y="116"/>
      <point x="637" y="297" type="curve"/>
      <point x="475" y="297" type="line"/>
      <point x="475" y="183"/>
      <point x="352" y="136"/>
      <point x="263" y="136" type="curve" smooth="yes"/>
      <point x="234" y="136"/>
      <point x="214" y="156"/>
      <point x="214" y="184" type="curve" smooth="yes"/>
      <point x="214" y="205"/>
      <point x="224" y="230"/>
      <point x="244" y="244" type="curve" smooth="yes"/>
      <point x="313" y="292" type="line" smooth="yes"/>
      <point x="454" y="390"/>
      <point x="515" y="446"/>
      <point x="515" y="530" type="curve" smooth="yes"/>
      <point x="515" y="637"/>
      <point x="421" y="712"/>
      <point x="287" y="712" type="curve" smooth="yes"/>
      <point x="166" y="712"/>
      <point x="71" y="639"/>
      <point x="71" y="537" type="curve" smooth="yes"/>
      <point x="71" y="498"/>
      <point x="84" y="461"/>
      <point x="149" y="380" type="curve"/>
      <point x="307" y="188" type="line"/>
      <point x="465" y="0" type="line"/>
      <point x="667" y="0" type="line"/>
      <point x="426" y="290" type="line"/>
      <point x="284" y="461" type="line"/>
      <point x="264" y="488"/>
      <point x="241" y="506"/>
      <point x="241" y="535" type="curve" smooth="yes"/>
      <point x="241" y="560"/>
      <point x="264" y="575"/>
      <point x="297" y="575" type="curve" smooth="yes"/>
      <point x="327" y="575"/>
      <point x="352" y="561"/>
      <point x="352" y="535" type="curve" smooth="yes"/>
      <point x="352" y="492"/>
      <point x="307" y="467"/>
      <point x="294" y="458" type="curve" smooth="yes"/>
      <point x="125" y="342" type="line" smooth="yes"/>
      <point x="67" y="302"/>
      <point x="30" y="240"/>
      <point x="30" y="179" type="curve" smooth="yes"/>
      <point x="30" y="67"/>
      <point x="121" y="-12"/>
    </contour>
  </outline>
</glyph>
<glyph name="quotesingle" format="2">
  <advance width="287"/>
  <unicode hex="0027"/>
  <outline>
    <contour>
      <point x="80" y="440" type="line"/>
      <point x="207" y="440" type="line"/>
      <point x="227" y="716" type="line"/>
      <point x="60" y="716" type="line"/>
    </contour>
  </outline>
</glyph>
<glyph name="parenleft" format="2">
  <advance width="410"/>
  <unicode hex="0028"/>
  <outline>
    <contour>
      <point x="206" y="-100" type="curve"/>
      <point x="380" y="-100" type="line"/>
      <point x="287" y="29"/>
      <point x="214" y="185"/>
      <point x="214" y="350" type="curve" smooth="yes"/>
      <point x="214" y="515"/>
      <point x="287" y="671"/>
      <point x="380" y="800" type="curve"/>
      <point x="206" y="800" type="line"/>
      <point x="113" y="678"/>
      <point x="40" y="523"/>
      <point x="40" y="350" type="curve" smooth="yes"/>
      <point x="40" y="177"/>
      <point x="113" y="22"/>
    </contour>
  </outline>
</glyph>
<glyph name="asterisk" format="2">
  <advance width="494"/>
  <unicode hex="002A"/>
  <outline>
    <contour>
      <point x="315" y="324" type="line"/>
      <point x="412" y="395" type="line"/>
      <point x="279" y="543" type="line"/>
      <point x="215" y="496" type="line"/>
    </contour>
    <contour>
      <point x="180" y="323" type="line"/>
      <point x="280" y="495" type="line"/>
      <point x="215" y="542" type="line"/>
      <point x="83" y="393" type="line"/>
    </contour>
    <contour>
      <point x="235" y="480" type="line"/>
      <point x="259" y="556" type="line"/>
      <point x="77" y="636" type="line"/>
      <point x="40" y="522" type="line"/>
    </contour>
    <contour>
      <point x="207" y="518" type="line"/>
      <point x="287" y="518" type="line"/>
      <point x="307" y="716" type="line"/>
      <point x="187" y="716" type="line"/>
    </contour>
    <contour>
      <point x="259" y="480" type="line"/>
      <point x="454" y="522" type="line"/>
      <point x="417" y="636" type="line"/>
      <point x="235" y="556" type="line"/>
    </contour>
  </outline>
</glyph>
<glyph name="plus" format="2">
  <advance width="550"/>
  <unicode hex="002B"/>
  <outline>
    <contour>
      <point x="205" y="63" type="line"/>
      <point x="345" y="63" type="line"/>
      <point x="345" y="533" type="line"/>
      <point x="205" y="533" type="line"/>
    </contour>
    <contour>
      <point x="40" y="228" type="line"/>
      <point x="510" y="228" type="line"/>
      <point x="510" y="368" type="line"/>
      <point x="40" y="368" type="line"/>
    </contour>
  </outline>
</glyph>
<glyph name="hyphen" format="2">
  <advance width="400"/>
  <unicode hex="002D"/>
  <outline>
    <contour>
      <point x="50" y="223" type="line"/>
      <point x="350" y="223" type="line"/>
      <point x="350" y="373" type="line"/>
      <point x="50" y="373" type="line"/>
    </contour>
  </outline>
</glyph>
<glyph name="zero" format="2">
  <advance width="655"/>
  <unicode hex="0030"/>
  <outline>
    <contour>
      <point x="327" y="-12" type="curve" smooth="yes"/>
      <point x="504" y="-12"/>
      <point x="630" y="138"/>
      <point x="630" y="350" type="curve" smooth="yes"/>
      <point x="630" y="562"/>
      <point x="504" y="712"/>
      <point x="325" y="712" type="curve" smooth="yes"/>
      <point x="149" y="712"/>
      <point x="25" y="562"/>
      <point x="25" y="350" type="curve" smooth="yes"/>
      <point x="25" y="138"/>
      <point x="150" y="-12"/>
    </contour>
    <contour>
      <point x="327" y="156" type="curve" smooth="yes"/>
      <point x="256" y="156"/>
      <point x="205" y="236"/>
      <point x="205" y="350" type="curve" smooth="yes"/>
      <point x="205" y="465"/>
      <point x="255" y="546"/>
      <point x="325" y="546" type="curve" smooth="yes"/>
      <point x="398" y="546"/>
      <point x="450" y="465"/>
      <point x="450" y="350" type="curve" smooth="yes"/>
      <point x="450" y="236"/>
      <point x="399" y="156"/>
    </contour>
  </outline>
</glyph>
<glyph name="one" format="2">
  <advance width="430"/>
  <unicode hex="0031"/>
  <outline>
    <contour>
      <point x="175" y="0" type="line"/>
      <point x="350" y="0" type="line"/>
      <point x="350" y="700" type="line"/>
      <point x="194" y="700" type="line"/>
      <point x="175" y="601" type="line"/>
    </contour>
    <contour>
      <point x="35" y="441" type="line"/>
      <point x="144" y="429"/>
      <point x="234" y="500"/>
      <point x="312" y="591" type="curve"/>
      <point x="194" y="702" type="line"/>
      <point x="153" y="657"/>
      <point x="92" y="603"/>
      <point x="35" y="609" type="curve"/>
    </contour>
  </outline>
</glyph>
<glyph name="two" format="2">
  <advance width="597"/>
  <unicode hex="0032"/>
  <outline>
    <contour>
      <point x="45" y="0" type="line"/>
      <point x="567" y="0" type="line"/>
      <point x="567" y="162" type="line"/>
      <point x="278" y="162" type="line"/>
      <point x="302" y="190"/>
      <point x="330" y="211"/>
      <point x="355" y="227" type="curve" smooth="yes"/>
      <point x="412" y="264" type="line" smooth="yes"/>
      <point x="498" y="320"/>
      <point x="560" y="384"/>
      <point x="560" y="484" type="curve" smooth="yes"/>
      <point x="560" y="620"/>
      <point x="458" y="713"/>
      <point x="289" y="713" type="curve" smooth="yes"/>
      <point x="136" y="713"/>
      <point x="38" y="616"/>
      <point x="20" y="508" type="curve"/>
      <point x="211" y="477" type="line"/>
      <point x="220" y="513"/>
      <point x="248" y="543"/>
      <point x="289" y="543" type="curve" smooth="yes"/>
      <point x="346" y="543"/>
      <point x="370" y="518"/>
      <point x="370" y="482" type="curve" smooth="yes"/>
      <point x="370" y="443"/>
      <point x="319" y="405"/>
      <point x="284" y="382" type="curve" smooth="yes"/>
      <point x="214" y="337" type="line" smooth="yes"/>
      <point x="117" y="274"/>
      <point x="45" y="182"/>
      <point x="45" y="130" type="curve" smooth="yes"/>
    </contour>
  </outline>
</glyph>
<glyph name="three" format="2">
  <advance width="567"/>
  <unicode hex="0033"/>
  <outline>
    <contour>
      <point x="292" y="-12" type="curve" smooth="yes"/>
      <point x="416" y="-12"/>
      <point x="537" y="57"/>
      <point x="537" y="186" type="curve" smooth="yes"/>
      <point x="537" y="310"/>
      <point x="394" y="395"/>
      <point x="243" y="395" type="curve" smooth="yes"/>
      <point x="188" y="395" type="line"/>
      <point x="188" y="278" type="line"/>
      <point x="250" y="278" type="line" smooth="yes"/>
      <point x="342" y="278"/>
      <point x="351" y="242"/>
      <point x="351" y="212" type="curve" smooth="yes"/>
      <point x="351" y="172"/>
      <point x="325" y="147"/>
      <point x="280" y="147" type="curve" smooth="yes"/>
      <point x="219" y="147"/>
      <point x="206" y="194"/>
      <point x="198" y="217" type="curve"/>
      <point x="20" y="181" type="line"/>
      <point x="38" y="53"/>
      <point x="150" y="-12"/>
    </contour>
    <contour>
      <point x="188" y="320" type="line"/>
      <point x="243" y="320" type="line" smooth="yes"/>
      <point x="375" y="320"/>
      <point x="527" y="378"/>
      <point x="527" y="514" type="curve" smooth="yes"/>
      <point x="527" y="633"/>
      <point x="419" y="712"/>
      <point x="284" y="712" type="curve" smooth="yes"/>
      <point x="167" y="712"/>
      <point x="43" y="647"/>
      <point x="25" y="517" type="curve"/>
      <point x="202" y="481" type="line"/>
      <point x="212" y="542"/>
      <point x="253" y="553"/>
      <point x="280" y="553" type="curve" smooth="yes"/>
      <point x="316" y="553"/>
      <point x="342" y="529"/>
      <point x="342" y="494" type="curve" smooth="yes"/>
      <point x="342" y="453"/>
      <point x="324" y="427"/>
      <point x="250" y="427" type="curve" smooth="yes"/>
      <point x="188" y="427" type="line"/>
    </contour>
  </outline>
</glyph>
<glyph name="four" format="2">
  <advance width="645"/>
  <unicode hex="0034"/>
  <outline>
    <contour>
      <point x="338" y="0" type="line"/>
      <point x="512" y="0" type="line"/>
      <point x="512" y="108" type="line"/>
      <point x="615" y="108" type="line"/>
      <point x="615" y="265" type="line"/>
      <point x="512" y="265" type="line"/>
      <point x="512" y="700" type="line"/>
      <point x="312" y="700" type="line"/>
      <point x="10" y="257" type="line"/>
      <point x="10" y="108" type="line"/>
      <point x="338" y="108" type="line"/>
    </contour>
    <contour>
      <point x="192" y="265" type="line"/>
      <point x="338" y="479" type="line"/>
      <point x="338" y="265" type="line"/>
    </contour>
  </outline>
</glyph>
<glyph name="five" format="2">
  <advance width="587"/>
  <unicode hex="0035"/>
  <outline>
    <contour>
      <point x="296" y="-12" type="curve" smooth="yes"/>
      <point x="449" y="-12"/>
      <point x="557" y="90"/>
      <point x="557" y="239" type="curve" smooth="yes"/>
      <point x="557" y="359"/>
      <point x="467" y="441"/>
      <point x="365" y="444" type="curve" smooth="yes"/>
      <point x="312" y="445"/>
      <point x="269" y="433"/>
      <point x="234" y="414" type="curve"/>
      <point x="254" y="532" type="line"/>
      <point x="515" y="532" type="line"/>
      <point x="515" y="700" type="line"/>
      <point x="99" y="700" type="line"/>
      <point x="49" y="305" type="line"/>
      <point x="215" y="269" type="line"/>
      <point x="226" y="289"/>
      <point x="248" y="308"/>
      <point x="282" y="308" type="curve" smooth="yes"/>
      <point x="332" y="308"/>
      <point x="364" y="271"/>
      <point x="364" y="228" type="curve" smooth="yes"/>
      <point x="364" y="179"/>
      <point x="331" y="148"/>
      <point x="283" y="148" type="curve" smooth="yes"/>
      <point x="251" y="148"/>
      <point x="220" y="161"/>
      <point x="209" y="189" type="curve"/>
      <point x="30" y="153" type="line"/>
      <point x="58" y="49"/>
      <point x="186" y="-12"/>
    </contour>
  </outline>
</glyph>
<glyph name="six" format="2">
  <advance width="593"/>
  <unicode hex="0036"/>
  <outline>
    <contour>
      <point x="299" y="-12" type="curve" smooth="yes"/>
      <point x="462" y="-12"/>
      <point x="563" y="85"/>
      <point x="563" y="214" type="curve" smooth="yes"/>
      <point x="563" y="348"/>
      <point x="469" y="457"/>
      <point x="337" y="457" type="curve" smooth="yes"/>
      <point x="256" y="457"/>
      <point x="197" y="412"/>
      <point x="166" y="346" type="curve"/>
      <point x="203" y="327" type="line"/>
      <point x="203" y="487"/>
      <point x="257" y="551"/>
      <point x="330" y="551" type="curve" smooth="yes"/>
      <point x="363" y="551"/>
      <point x="413" y="541"/>
      <point x="454" y="514" type="curve"/>
      <point x="541" y="650" type="line"/>
      <point x="483" y="690"/>
      <point x="410" y="712"/>
      <point x="332" y="712" type="curve" smooth="yes"/>
      <point x="100" y="712"/>
      <point x="30" y="498"/>
      <point x="30" y="305" type="curve" smooth="yes"/>
      <point x="30" y="124"/>
      <point x="116" y="-12"/>
    </contour>
    <contour>
      <point x="300" y="142" type="curve" smooth="yes"/>
      <point x="255" y="142"/>
      <point x="219" y="178"/>
      <point x="219" y="224" type="curve" smooth="yes"/>
      <point x="219" y="271"/>
      <point x="255" y="310"/>
      <point x="300" y="310" type="curve" smooth="yes"/>
      <point x="344" y="310"/>
      <point x="379" y="271"/>
      <point x="379" y="224" type="curve" smooth="yes"/>
      <point x="379" y="178"/>
      <point x="344" y="142"/>
    </contour>
  </outline>
</glyph>
<glyph name="seven" format="2">
  <advance width="573"/>
  <unicode hex="0037"/>
  <outline>
    <contour>
      <point x="104" y="0" type="line"/>
      <point x="309" y="0" type="line"/>
      <point x="543" y="570" type="line"/>
      <point x="337" y="530" type="line"/>
    </contour>
    <contour>
      <point x="25" y="530" type="line"/>
      <point x="337" y="530" type="line"/>
      <point x="543" y="570" type="line"/>
      <point x="543" y="700" type="line"/>
      <point x="25" y="700" type="line"/>
    </contour>
  </outline>
</glyph>
<glyph name="eight" format="2">
  <advance width="610"/>
  <unicode hex="0038"/>
  <outline>
    <contour>
      <point x="304" y="-12" type="curve" smooth="yes"/>
      <point x="489" y="-12"/>
      <point x="580" y="67"/>
      <point x="580" y="182" type="curve" smooth="yes"/>
      <point x="580" y="309"/>
      <point x="489" y="397"/>
      <point x="304" y="396" type="curve" smooth="yes"/>
      <point x="119" y="397"/>
      <point x="30" y="309"/>
      <point x="30" y="182" type="curve" smooth="yes"/>
      <point x="30" y="67"/>
      <point x="119" y="-12"/>
    </contour>
    <contour>
      <point x="304" y="140" type="curve" smooth="yes"/>
      <point x="255" y="140"/>
      <point x="220" y="169"/>
      <point x="220" y="209" type="curve" smooth="yes"/>
      <point x="220" y="257"/>
      <point x="255" y="290"/>
      <point x="304" y="290" type="curve" smooth="yes"/>
      <point x="354" y="290"/>
      <point x="390" y="257"/>
      <point x="390" y="209" type="curve" smooth="yes"/>
      <point x="390" y="169"/>
      <point x="354" y="140"/>
    </contour>
    <contour>
      <point x="304" y="337" type="curve" smooth="yes"/>
      <point x="470" y="337"/>
      <point x="560" y="412"/>
      <point x="560" y="522" type="curve" smooth="yes"/>
      <point x="560" y="634"/>
      <point x="470" y="712"/>
      <point x="304" y="712" type="curve" smooth="yes"/>
      <point x="138" y="712"/>
      <point x="50" y="634"/>
      <point x="50" y="522" type="curve" smooth="yes"/>
      <point x="50" y="412"/>
      <point x="138" y="337"/>
    </contour>
    <contour>
      <point x="304" y="427" type="curve" smooth="yes"/>
      <point x="260" y="427"/>
      <point x="230" y="457"/>
      <point x="230" y="499" type="curve" smooth="yes"/>
      <point x="230" y="539"/>
      <point x="260" y="567"/>
      <point x="304" y="567" type="curve" smooth="yes"/>
      <point x="348" y="567"/>
      <point x="380" y="539"/>
      <point x="380" y="499" type="curve" smooth="yes"/>
      <point x="380" y="457"/>
      <point x="348" y="427"/>
    </contour>
  </outline>
</glyph>
<glyph name="equal" format="2">
  <advance width="640"/>
  <unicode hex="003D"/>
  <outline>
    <contour>
      <point x="120" y="328" type="line"/>
      <point x="520" y="328" type="line"/>
      <point x="520" y="467" type="line"/>
      <point x="120" y="467" type="line"/>
    </contour>
    <contour>
      <point x="120" y="128" type="line"/>
      <point x="520" y="128" type="line"/>
      <point x="520" y="267" type="line"/>
      <point x="120" y="267" type="line"/>
    </contour>
  </outline>
</glyph>
<glyph name="greater" format="2">
  <advance width="521"/>
  <unicode hex="003E"/>
  <outline>
    <contour>
      <point x="70" y="60" type="line"/>
      <point x="471" y="229" type="line"/>
      <point x="471" y="364" type="line"/>
      <point x="70" y="217" type="line"/>
    </contour>
    <contour>
      <point x="471" y="234" type="line"/>
      <point x="471" y="369" type="line"/>
      <point x="70" y="536" type="line"/>
      <point x="70" y="379" type="line"/>
    </contour>
  </outline>
</glyph>
<glyph name="question" format="2">
  <advance width="522"/>
  <unicode hex="003F"/>
  <outline>
    <contour>
      <point x="151" y="213" type="line"/>
      <point x="319" y="213" type="line"/>
      <point x="322" y="289" type="line"/>
      <point x="428" y="307"/>
      <point x="497" y="377"/>
      <point x="497" y="478" type="curve" smooth="yes"/>
      <point x="497" y="615"/>
      <point x="392" y="712"/>
      <point x="244" y="712" type="curve" smooth="yes"/>
      <point x="125" y="712"/>
      <point x="41" y="649"/>
      <point x="15" y="548" type="curve"/>
      <point x="176" y="505" type="line"/>
      <point x="186" y="532"/>
      <point x="210" y="552"/>
      <point x="244" y="552" type="curve" smooth="yes"/>
      <point x="293" y="552"/>
      <point x="327" y="521"/>
      <point x="327" y="478" type="curve" smooth="yes"/>
      <point x="327" y="423"/>
      <point x="290" y="402"/>
      <point x="237" y="396" type="curve" smooth="yes"/>
      <point x="144" y="387" type="line"/>
    </contour>
    <contour>
      <point x="235" y="-15" type="curve" smooth="yes"/>
      <point x="291" y="-15"/>
      <point x="338" y="32"/>
      <point x="338" y="88" type="curve" smooth="yes"/>
      <point x="338" y="144"/>
      <point x="291" y="191"/>
      <point x="235" y="191" type="curve" smooth="yes"/>
      <point x="179" y="191"/>
      <point x="132" y="144"/>
      <point x="132" y="88" type="curve" smooth="yes"/>
      <point x="132" y="32"/>
      <point x="179" y="-15"/>
    </contour>
  </outline>
</glyph>
<glyph name="at" format="2">
  <advance width="994"/>
  <unicode hex="0040"/>
  <outline>
    <contour>
      <point x="517" y="-208" type="curve" smooth="yes"/>
      <point x="575" y="-208"/>
      <point x="655" y="-182"/>
      <point x="711" y="-146" type="curve"/>
      <point x="640" y="-49" type="line"/>
      <point x="611" y="-72"/>
      <point x="560" y="-88"/>
      <point x="517" y="-88" type="curve" smooth="yes"/>
      <point x="299" y="-88"/>
      <point x="145" y="53"/>
      <point x="145" y="252" type="curve" smooth="yes"/>
      <point x="145" y="453"/>
      <point x="299" y="595"/>
      <point x="517" y="595" type="curve" smooth="yes"/>
      <point x="711" y="595"/>
      <point x="849" y="453"/>
      <point x="849" y="252" type="curve"/>
      <point x="969" y="252" type="line"/>
      <point x="969" y="523"/>
      <point x="782" y="715"/>
      <point x="517" y="715" type="curve" smooth="yes"/>
      <point x="229" y="715"/>
      <point x="25" y="523"/>
      <point x="25" y="252" type="curve" smooth="yes"/>
      <point x="25" y="-17"/>
      <point x="229" y="-208"/>
    </contour>
    <contour>
      <point x="450" y="14" type="curve" smooth="yes"/>
      <point x="575" y="14"/>
      <point x="664" y="113"/>
      <point x="664" y="252" type="curve" smooth="yes"/>
      <point x="664" y="391"/>
      <point x="575" y="489"/>
      <point x="450" y="489" type="curve" smooth="yes"/>
      <point x="336" y="489"/>
      <point x="256" y="391"/>
      <point x="256" y="252" type="curve" smooth="yes"/>
      <point x="256" y="113"/>
      <point x="336" y="14"/>
    </contour>
    <contour>
      <point x="511" y="158" type="curve" smooth="yes"/>
      <point x="459" y="158"/>
      <point x="420" y="196"/>
      <point x="420" y="253" type="curve" smooth="yes"/>
      <point x="420" y="307"/>
      <point x="454" y="345"/>
      <point x="502" y="345" type="curve" smooth="yes"/>
      <point x="552" y="345"/>
      <point x="589" y="307"/>
      <point x="589" y="252" type="curve" smooth="yes"/>
      <point x="589" y="196"/>
      <point x="556" y="158"/>
    </contour>
    <contour>
      <point x="751" y="-15" type="curve" smooth="yes"/>
      <point x="879" y="-15"/>
      <point x="969" y="96"/>
      <point x="969" y="252" type="curve"/>
      <point x="849" y="252" type="line"/>
      <point x="849" y="158"/>
      <point x="814" y="91"/>
      <point x="765" y="91" type="curve" smooth="yes"/>
      <point x="740" y="91"/>
      <point x="722" y="96"/>
      <point x="722" y="130" type="curve"/>
      <point x="592" y="120" type="line"/>
      <point x="592" y="41"/>
      <point x="664" y="-15"/>
    </contour>
    <contour>
      <point x="592" y="120" type="line"/>
      <point x="722" y="130" type="line"/>
      <point x="722" y="479" type="line"/>
      <point x="582" y="479" type="line"/>
    </contour>
  </outline>
</glyph>
<glyph name="A" format="2">
  <advance width="749"/>
  <unicode hex="0041"/>
  <anchor x="375" y="0" name="bottom"/>
  <anchor x="752" y="0" name="ogonek"/>
  <anchor x="375" y="700" name="top"/>
  <outline>
    <contour>
      <point x="546" y="0" type="line"/>
      <point x="742" y="0" type="line"/>
      <point x="474" y="700" type="line"/>
      <point x="290" y="700" type="line"/>
    </contour>
    <contour>
      <point x="7" y="0" type="line"/>
      <point x="203" y="0" type="line"/>
      <point x="459" y="700" type="line"/>
      <point x="275" y="700" type="line"/>
    </contour>
    <contour>
      <point x="133" y="112" type="line"/>
      <point x="617" y="112" type="line"/>
      <point x="617" y="275" type="line"/>
      <point x="133" y="275" type="line"/>
    </contour>
  </outline>
</glyph>
<glyph name="B" format="2">
  <advance width="614"/>
  <unicode hex="0042"/>
  <outline>
    <contour>
      <point x="60" y="0" type="line"/>
      <point x="347" y="0" type="line" smooth="yes"/>
      <point x="489" y="0"/>
      <point x="589" y="74"/>
      <point x="589" y="208" type="curve" smooth="yes"/>
      <point x="589" y="287"/>
      <point x="554" y="340"/>
      <point x="493" y="373" type="curve"/>
      <point x="536" y="408"/>
      <point x="561" y="450"/>
      <point x="561" y="493" type="curve" smooth="yes"/>
      <point x="561" y="635"/>
      <point x="458" y="700"/>
      <point x="312" y="700" type="curve" smooth="yes"/>
      <point x="60" y="700" type="line"/>
    </contour>
    <contour>
      <point x="240" y="163" type="line"/>
      <point x="240" y="288" type="line"/>
      <point x="325" y="288" type="line" smooth="yes"/>
      <point x="369" y="288"/>
      <point x="397" y="264"/>
      <point x="397" y="227" type="curve" smooth="yes"/>
      <point x="397" y="190"/>
      <point x="369" y="163"/>
      <point x="325" y="163" type="curve" smooth="yes"/>
    </contour>
    <contour>
      <point x="240" y="435" type="line"/>
      <point x="240" y="557" type="line"/>
      <point x="299" y="557" type="line" smooth="yes"/>
      <point x="341" y="557"/>
      <point x="371" y="535"/>
      <point x="371" y="496" type="curve" smooth="yes"/>
      <point x="371" y="457"/>
      <point x="341" y="435"/>
      <point x="299" y="435" type="curve" smooth="yes"/>
    </contour>
  </outline>
</glyph>
<glyph name="C" format="2">
  <advance width="729"/>
  <unicode hex="0043"/>
  <anchor x="383" y="0" name="bottom"/>
  <anchor x="383" y="700" name="top"/>
  <outline>
    <contour>
      <point x="383" y="-12" type="curve" smooth="yes"/>
      <point x="545" y="-12"/>
      <point x="665" y="78"/>
      <point x="714" y="211" type="curve"/>
      <point x="538" y="267" type="line"/>
      <point x="507" y="201"/>
      <point x="464" y="158"/>
      <point x="386" y="158" type="curve" smooth="yes"/>
      <point x="286" y="158"/>
      <point x="215" y="237"/>
      <point x="215" y="350" type="curve" smooth="yes"/>
      <point x="215" y="463"/>
      <point x="285" y="542"/>
      <point x="383" y="542" type="curve" smooth="yes"/>
      <point x="457" y="542"/>
      <point x="508" y="500"/>
      <point x="537" y="434" type="curve"/>
      <point x="713" y="490" type="line"/>
      <point x="663" y="622"/>
      <point x="544" y="712"/>
      <point x="383" y="712" type="curve" smooth="yes"/>
      <point x="173" y="712"/>
      <point x="25" y="562"/>
      <point x="25" y="350" type="curve" smooth="yes"/>
      <point x="25" y="138"/>
      <point x="173" y="-12"/>
    </contour>
  </outline>
</glyph>
<glyph name="D" format="2">
  <advance width="711"/>
  <unicode hex="0044"/>
  <anchor x="303" y="700" name="top"/>
  <outline>
    <contour>
      <point x="60" y="0" type="line"/>
      <point x="294" y="0" type="line" smooth="yes"/>
      <point x="524" y="0"/>
      <point x="686" y="145"/>
      <point x="686" y="350" type="curve" smooth="yes"/>
      <point x="686" y="555"/>
      <point x="524" y="700"/>
      <point x="294" y="700" type="curve" smooth="yes"/>
      <point x="60" y="700" type="line"/>
    </contour>
    <contour>
      <point x="245" y="175" type="line"/>
      <point x="245" y="525" type="line"/>
      <point x="294" y="525" type="line" smooth="yes"/>
      <point x="412" y="525"/>
      <point x="496" y="453"/>
      <point x="496" y="350" type="curve" smooth="yes"/>
      <point x="496" y="247"/>
      <point x="412" y="175"/>
      <point x="294" y="175" type="curve" smooth="yes"/>
    </contour>
  </outline>
</glyph>
<glyph name="E" format="2">
  <advance width="586"/>
  <unicode hex="0045"/>
  <anchor x="288" y="0" name="bottom"/>
  <anchor x="546" y="0" name="ogonek"/>
  <anchor x="288" y="700" name="top"/>
  <anchor x="10" y="700" name="topleft"/>
  <outline>
    <contour>
      <point x="60" y="0" type="line"/>
      <point x="536" y="0" type="line"/>
      <point x="536" y="170" type="line"/>
      <point x="245" y="170" type="line"/>
      <point x="245" y="268" type="line"/>
      <point x="475" y="268" type="line"/>
      <point x="475" y="433" type="line"/>
      <point x="245" y="433" type="line"/>
      <point x="245" y="530" type="line"/>
      <point x="529" y="530" type="line"/>
      <point x="529" y="700" type="line"/>
      <point x="60" y="700" type="line"/>
    </contour>
  </outline>
</glyph>
<glyph name="F" format="2">
  <advance width="564"/>
  <unicode hex="0046"/>
  <outline>
    <contour>
      <point x="60" y="0" type="line"/>
      <point x="245" y="0" type="line"/>
      <point x="245" y="258" type="line"/>
      <point x="475" y="258" type="line"/>
      <point x="475" y="428" type="line"/>
      <point x="245" y="428" type="line"/>
      <point x="245" y="530" type="line"/>
      <point x="539" y="530" type="line"/>
      <point x="539" y="700" type="line"/>
      <point x="60" y="700" type="line"/>
    </contour>
  </outline>
</glyph>
<glyph name="H" format="2">
  <advance width="748"/>
  <unicode hex="0048"/>
  <outline>
    <contour>
      <point x="503" y="0" type="line"/>
      <point x="688" y="0" type="line"/>
      <point x="688" y="700" type="line"/>
      <point x="503" y="700" type="line"/>
    </contour>
    <contour>
      <point x="60" y="0" type="line"/>
      <point x="245" y="0" type="line"/>
      <point x="245" y="701" type="line"/>
      <point x="60" y="701" type="line"/>
    </contour>
    <contour>
      <point x="187" y="271" type="line"/>
      <point x="611" y="271" type="line"/>
      <point x="611" y="441" type="line"/>
      <point x="187" y="441" type="line"/>
    </contour>
  </outline>
</glyph>
<glyph name="I" format="2">
  <advance width="305"/>
  <unicode hex="0049"/>
  <anchor x="155" y="0" name="bottom"/>
  <anchor x="255" y="0" name="ogonek"/>
  <anchor x="155" y="700" name="top"/>
  <anchor x="10" y="700" name="topleft"/>
  <outline>
    <contour>
      <point x="60" y="0" type="line"/>
      <point x="245" y="0" type="line"/>
      <point x="245" y="700" type="line"/>
      <point x="60" y="700" type="line"/>
    </contour>
  </outline>
</glyph>
<glyph name="J" format="2">
  <advance width="587"/>
  <unicode hex="004A"/>
  <anchor x="440" y="670" name="top"/>
  <outline>
    <contour>
      <point x="263" y="-16" type="curve" smooth="yes"/>
      <point x="434" y="-16"/>
      <point x="537" y="77"/>
      <point x="537" y="209" type="curve" smooth="yes"/>
      <point x="537" y="700" type="line"/>
      <point x="352" y="700" type="line"/>
      <point x="352" y="255" type="line" smooth="yes"/>
      <point x="352" y="186"/>
      <point x="316" y="154"/>
      <point x="265" y="154" type="curve" smooth="yes"/>
      <point x="218" y="154"/>
      <point x="187" y="186"/>
      <point x="173" y="251" type="curve"/>
      <point x="10" y="201" type="line"/>
      <point x="10" y="121"/>
      <point x="89" y="-16"/>
    </contour>
  </outline>
</glyph>
<glyph name="L" format="2">
  <advance width="553"/>
  <unicode hex="004C"/>
  <anchor x="287" y="0" name="bottom"/>
  <anchor x="277" y="350" name="center"/>
  <anchor x="153" y="700" name="top"/>
  <anchor x="257" y="759" name="top_caron"/>
  <anchor x="533" y="700" name="topright"/>
  <outline>
    <contour>
      <point x="60" y="0" type="line"/>
      <point x="533" y="0" type="line"/>
      <point x="533" y="170" type="line"/>
      <point x="245" y="170" type="line"/>
      <point x="245" y="700" type="line"/>
      <point x="60" y="700" type="line"/>
    </contour>
  </outline>
</glyph>
<glyph name="M" format="2">
  <advance width="868"/>
  <unicode hex="004D"/>
  <outline>
    <contour>
      <point x="60" y="0" type="line"/>
      <point x="245" y="0" type="line"/>
      <point x="245" y="414" type="line"/>
      <point x="435" y="140" type="line"/>
      <point x="623" y="414" type="line"/>
      <point x="623" y="0" type="line"/>
      <point x="808" y="0" type="line"/>
      <point x="808" y="700" type="line"/>
      <point x="603" y="700" type="line"/>
      <point x="434" y="450" type="line"/>
      <point x="265" y="700" type="line"/>
      <point x="60" y="700" type="line"/>
    </contour>
  </outline>
</glyph>
<glyph name="N" format="2">
  <advance width="773"/>
  <unicode hex="004E"/>
  <anchor x="389" y="0" name="bottom"/>
  <anchor x="387" y="680" name="top"/>
  <outline>
    <contour>
      <point x="60" y="0" type="line"/>
      <point x="245" y="0" type="line"/>
      <point x="245" y="399" type="line"/>
      <point x="528" y="0" type="line"/>
      <point x="713" y="0" type="line"/>
      <point x="713" y="700" type="line"/>
      <point x="528" y="700" type="line"/>
      <point x="528" y="315" type="line"/>
      <point x="255" y="700" type="line"/>
      <point x="60" y="700" type="line"/>
    </contour>
  </outline>
</glyph>
<glyph name="O" format="2">
  <advance width="797"/>
  <unicode hex="004F"/>
  <anchor x="399" y="0" name="bottom"/>
  <anchor x="399" y="350" name="center"/>
  <anchor x="545" y="10" name="ogonek"/>
  <anchor x="399" y="700" name="top"/>
  <anchor x="15" y="700" name="topleft"/>
  <anchor x="782" y="700" name="topright"/>
  <outline>
    <contour>
      <point x="400" y="-12" type="curve" smooth="yes"/>
      <point x="618" y="-12"/>
      <point x="772" y="138"/>
      <point x="772" y="349" type="curve" smooth="yes"/>
      <point x="772" y="561"/>
      <point x="617" y="711"/>
      <point x="398" y="711" type="curve" smooth="yes"/>
      <point x="180" y="711"/>
      <point x="25" y="561"/>
      <point x="25" y="349" type="curve" smooth="yes"/>
      <point x="25" y="138"/>
      <point x="180" y="-12"/>
    </contour>
    <contour>
      <point x="400" y="158" type="curve" smooth="yes"/>
      <point x="292" y="158"/>
      <point x="215" y="237"/>
      <point x="215" y="349" type="curve" smooth="yes"/>
      <point x="215" y="461"/>
      <point x="291" y="541"/>
      <point x="398" y="541" type="curve" smooth="yes"/>
      <point x="506" y="541"/>
      <point x="582" y="461"/>
      <point x="582" y="349" type="curve" smooth="yes"/>
      <point x="582" y="237"/>
      <point x="507" y="158"/>
    </contour>
  </outline>
</glyph>
<glyph name="P" format="2">
  <advance width="625"/>
  <unicode hex="0050"/>
  <outline>
    <contour>
      <point x="60" y="0" type="line"/>
      <point x="245" y="0" type="line"/>
      <point x="245" y="210" type="line"/>
      <point x="350" y="210" type="line" smooth="yes"/>
      <point x="508" y="210"/>
      <point x="620" y="312"/>
      <point x="620" y="456" type="curve" smooth="yes"/>
      <point x="620" y="600"/>
      <point x="508" y="700"/>
      <point x="350" y="700" type="curve" smooth="yes"/>
      <point x="60" y="700" type="line"/>
    </contour>
    <contour>
      <point x="245" y="380" type="line"/>
      <point x="245" y="531" type="line"/>
      <point x="345" y="531" type="line" smooth="yes"/>
      <point x="395" y="531"/>
      <point x="430" y="500"/>
      <point x="430" y="456" type="curve" smooth="yes"/>
      <point x="430" y="411"/>
      <point x="395" y="380"/>
      <point x="345" y="380" type="curve" smooth="yes"/>
    </contour>
  </outline>
</glyph>
<glyph name="Q" format="2">
  <advance width="797"/>
  <unicode hex="0051"/>
  <outline>
    <contour>
      <point x="400" y="-12" type="curve" smooth="yes"/>
      <point x="618" y="-12"/>
      <point x="772" y="138"/>
      <point x="772" y="349" type="curve" smooth="yes"/>
      <point x="772" y="561"/>
      <point x="617" y="712"/>
      <point x="398" y="712" type="curve" smooth="yes"/>
      <point x="180" y="712"/>
      <point x="25" y="561"/>
      <point x="25" y="349" type="curve" smooth="yes"/>
      <point x="25" y="138"/>
      <point x="180" y="-12"/>
    </contour>
    <contour>
      <point x="641" y="-44" type="line"/>
      <point x="756" y="68" type="line"/>
      <point x="493" y="337" type="line"/>
      <point x="376" y="226" type="line"/>
    </contour>
    <contour>
      <point x="400" y="158" type="curve" smooth="yes"/>
      <point x="292" y="158"/>
      <point x="215" y="237"/>
      <point x="215" y="349" type="curve" smooth="yes"/>
      <point x="215" y="462"/>
      <point x="291" y="542"/>
      <point x="398" y="542" type="curve" smooth="yes"/>
      <point x="506" y="542"/>
      <point x="582" y="462"/>
      <point x="582" y="349" type="curve" smooth="yes"/>
      <point x="582" y="237"/>
      <point x="507" y="158"/>
    </contour>
  </outline>
</glyph>
<glyph name="R" format="2">
  <advance width="663"/>
  <unicode hex="0052"/>
  <anchor x="332" y="0" name="bottom"/>
  <anchor x="301" y="700" name="top"/>
  <outline>
    <contour>
      <point x="60" y="0" type="line"/>
      <point x="245" y="0" type="line"/>
      <point x="245" y="222" type="line"/>
      <point x="350" y="222" type="line" smooth="yes"/>
      <point x="508" y="222"/>
      <point x="620" y="321"/>
      <point x="620" y="462" type="curve" smooth="yes"/>
      <point x="620" y="602"/>
      <point x="508" y="700"/>
      <point x="350" y="700" type="curve" smooth="yes"/>
      <point x="60" y="700" type="line"/>
    </contour>
    <contour>
      <point x="436" y="0" type="line"/>
      <point x="648" y="0" type="line"/>
      <point x="419" y="379" type="line"/>
      <point x="280" y="275" type="line"/>
    </contour>
    <contour>
      <point x="245" y="392" type="line"/>
      <point x="245" y="531" type="line"/>
      <point x="340" y="531" type="line" smooth="yes"/>
      <point x="390" y="531"/>
      <point x="425" y="502"/>
      <point x="425" y="462" type="curve" smooth="yes"/>
      <point x="425" y="421"/>
      <point x="390" y="392"/>
      <point x="340" y="392" type="curve" smooth="yes"/>
    </contour>
  </outline>
</glyph>
<glyph name="T" format="2">
  <advance width="614"/>
  <unicode hex="0054"/>
  <anchor x="307" y="0" name="bottom"/>
  <anchor x="307" y="350" name="center"/>
  <anchor x="306" y="700" name="top"/>
  <outline>
    <contour>
      <point x="215" y="0" type="line"/>
      <point x="400" y="0" type="line"/>
      <point x="400" y="530" type="line"/>
      <point x="597" y="530" type="line"/>
      <point x="597" y="700" type="line"/>
      <point x="17" y="700" type="line"/>
      <point x="17" y="530" type="line"/>
      <point x="215" y="530" type="line"/>
    </contour>
  </outline>
</glyph>
<glyph name="U" format="2">
  <advance width="700"/>
  <unicode hex="0055"/>
  <anchor x="348" y="0" name="bottom"/>
  <anchor x="555" y="50" name="ogonek"/>
  <anchor x="350" y="700" name="top"/>
  <anchor x="670" y="700" name="topright"/>
  <outline>
    <contour>
      <point x="348" y="-12" type="curve" smooth="yes"/>
      <point x="538" y="-12"/>
      <point x="650" y="94"/>
      <point x="650" y="271" type="curve" smooth="yes"/>
      <point x="650" y="700" type="line"/>
      <point x="465" y="700" type="line"/>
      <point x="465" y="271" type="line" smooth="yes"/>
      <point x="465" y="201"/>
      <point x="422" y="160"/>
      <point x="350" y="160" type="curve" smooth="yes"/>
      <point x="278" y="160"/>
      <point x="235" y="201"/>
      <point x="235" y="271" type="curve" smooth="yes"/>
      <point x="235" y="700" type="line"/>
      <point x="50" y="700" type="line"/>
      <point x="50" y="271" type="line" smooth="yes"/>
      <point x="50" y="94"/>
      <point x="161" y="-12"/>
    </contour>
  </outline>
</glyph>
<glyph name="V" format="2">
  <advance width="750"/>
  <unicode hex="0056"/>
  <outline>
    <contour>
      <point x="297" y="0" type="line"/>
      <point x="476" y="0" type="line"/>
      <point x="743" y="700" type="line"/>
      <point x="543" y="700" type="line"/>
    </contour>
    <contour>
      <point x="276" y="0" type="line"/>
      <point x="455" y="0" type="line"/>
      <point x="207" y="700" type="line"/>
      <point x="7" y="700" type="line"/>
    </contour>
  </outline>
</glyph>
<glyph name="X" format="2">
  <advance width="739"/>
  <unicode hex="0058"/>
  <outline>
    <contour>
      <point x="10" y="0" type="line"/>
      <point x="233" y="0" type="line"/>
      <point x="457" y="340" type="line"/>
      <point x="721" y="700" type="line"/>
      <point x="500" y="700" type="line"/>
      <point x="282" y="382" type="line"/>
    </contour>
    <contour>
      <point x="506" y="0" type="line"/>
      <point x="729" y="0" type="line"/>
      <point x="458" y="383" type="line"/>
      <point x="239" y="700" type="line"/>
      <point x="18" y="700" type="line"/>
      <point x="283" y="340" type="line"/>
    </contour>
  </outline>
</glyph>
<glyph name="Y" format="2">
  <advance width="686"/>
  <unicode hex="0059"/>
  <anchor x="343" y="670" name="top"/>
  <outline>
    <contour>
      <point x="429" y="287" type="line"/>
      <point x="681" y="700" type="line"/>
      <point x="471" y="700" type="line"/>
      <point x="248" y="318" type="line"/>
    </contour>
    <contour>
      <point x="251" y="0" type="line"/>
      <point x="436" y="0" type="line"/>
      <point x="436" y="336" type="line"/>
      <point x="251" y="336" type="line"/>
    </contour>
    <contour>
      <point x="257" y="287" type="line"/>
      <point x="438" y="318" type="line"/>
      <point x="215" y="700" type="line"/>
      <point x="5" y="700" type="line"/>
    </contour>
  </outline>
</glyph>
<glyph name="Z" format="2">
  <advance width="624"/>
  <unicode hex="005A"/>
  <anchor x="313" y="700" name="top"/>
  <outline>
    <contour>
      <point x="30" y="0" type="line"/>
      <point x="591" y="0" type="line"/>
      <point x="591" y="175" type="line"/>
      <point x="272" y="175" type="line"/>
      <point x="594" y="525" type="line"/>
      <point x="594" y="700" type="line"/>
      <point x="33" y="700" type="line"/>
      <point x="33" y="525" type="line"/>
      <point x="352" y="525" type="line"/>
      <point x="30" y="175" type="line"/>
    </contour>
  </outline>
</glyph>
<glyph name="underscore" format="2">
  <advance width="430"/>
  <unicode hex="005F"/>
  <outline>
    <contour>
      <point x="15" y="-150" type="line"/>
      <point x="415" y="-150" type="line"/>
      <point x="415" y="0" type="line"/>
      <point x="15" y="0" type="line"/>
    </contour>
  </outline>
</glyph>
<glyph name="a" format="2">
  <advance width="546"/>
  <unicode hex="0061"/>
  <anchor x="252" y="0" name="bottom"/>
  <anchor x="516" y="0" name="ogonek"/>
  <anchor x="252" y="500" name="top"/>
  <outline>
    <contour>
      <point x="337" y="0" type="line"/>
      <point x="506" y="0" type="line"/>
      <point x="506" y="281" type="line" smooth="yes"/>
      <point x="506" y="419"/>
      <point x="412" y="512"/>
      <point x="252" y="512" type="curve" smooth="yes"/>
      <point x="148" y="512"/>
      <point x="72" y="460"/>
      <point x="31" y="378" type="curve"/>
      <point x="188" y="328" type="line"/>
      <point x="202" y="349"/>
      <point x="222" y="368"/>
      <point x="256" y="368" type="curve" smooth="yes"/>
      <point x="328" y="368"/>
      <point x="332" y="315"/>
      <point x="332" y="245" type="curve" smooth="yes"/>
      <point x="332" y="115" type="line"/>
    </contour>
    <contour>
      <point x="204" y="-12" type="curve" smooth="yes"/>
      <point x="314" y="-12"/>
      <point x="379" y="61"/>
      <point x="379" y="191" type="curve"/>
      <point x="332" y="191" type="line"/>
      <point x="332" y="144"/>
      <point x="301" y="114"/>
      <point x="251" y="114" type="curve"/>
      <point x="220" y="114"/>
      <point x="202" y="125"/>
      <point x="202" y="145" type="curve"/>
      <point x="202" y="174"/>
      <point x="228" y="191"/>
      <point x="275" y="191" type="curve"/>
      <point x="351" y="191" type="line"/>
      <point x="351" y="294" type="line"/>
      <point x="204" y="294" type="line" smooth="yes"/>
      <point x="88" y="294"/>
      <point x="20" y="245"/>
      <point x="20" y="141" type="curve" smooth="yes"/>
      <point x="20" y="42"/>
      <point x="88" y="-12"/>
    </contour>
  </outline>
</glyph>
<glyph name="c" format="2">
  <advance width="550"/>
  <unicode hex="0063"/>
  <anchor x="302" y="-1" name="bottom"/>
  <anchor x="300" y="500" name="top"/>
  <outline>
    <contour>
      <point x="302" y="-12" type="curve" smooth="yes"/>
      <point x="407" y="-12"/>
      <point x="502" y="45"/>
      <point x="540" y="149" type="curve"/>
      <point x="368" y="204" type="line"/>
      <point x="356" y="177"/>
      <point x="325" y="158"/>
      <point x="292" y="158" type="curve" smooth="yes"/>
      <point x="241" y="158"/>
      <point x="205" y="196"/>
      <point x="205" y="250" type="curve" smooth="yes"/>
      <point x="205" y="304"/>
      <point x="240" y="342"/>
      <point x="290" y="342" type="curve" smooth="yes"/>
      <point x="324" y="342"/>
      <point x="356" y="323"/>
      <point x="367" y="296" type="curve"/>
      <point x="539" y="352" type="line"/>
      <point x="501" y="456"/>
      <point x="405" y="512"/>
      <point x="300" y="512" type="curve" smooth="yes"/>
      <point x="136" y="512"/>
      <point x="20" y="403"/>
      <point x="20" y="250" type="curve" smooth="yes"/>
      <point x="20" y="97"/>
      <point x="137" y="-12"/>
    </contour>
  </outline>
</glyph>
<glyph name="d" format="2">
  <advance width="604"/>
  <unicode hex="0064"/>
  <anchor x="459" y="700" name="top"/>
  <anchor x="560" y="700" name="top_caron"/>
  <outline>
    <contour>
      <point x="388" y="0" type="line"/>
      <point x="559" y="0" type="line"/>
      <point x="559" y="700" type="line"/>
      <point x="379" y="700" type="line"/>
      <point x="379" y="93" type="line"/>
    </contour>
    <component base="Bowl" xOffset="9"/>
  </outline>
</glyph>
<glyph name="e" format="2">
  <advance width="566"/>
  <unicode hex="0065"/>
  <anchor x="283" y="0" name="bottom"/>
  <anchor x="485" y="50" name="ogonek"/>
  <anchor x="295" y="500" name="top"/>
  <outline>
    <contour>
      <point x="298" y="-12" type="curve" smooth="yes"/>
      <point x="391" y="-12"/>
      <point x="503" y="25"/>
      <point x="539" y="130" type="curve"/>
      <point x="381" y="179" type="line"/>
      <point x="373" y="148"/>
      <point x="337" y="125"/>
      <point x="293" y="125" type="curve" smooth="yes"/>
      <point x="244" y="125"/>
      <point x="203" y="152"/>
      <point x="203" y="241" type="curve" smooth="yes"/>
      <point x="203" y="333"/>
      <point x="225" y="387"/>
      <point x="288" y="387" type="curve" smooth="yes"/>
      <point x="365" y="387"/>
      <point x="379" y="311"/>
      <point x="379" y="205" type="curve"/>
      <point x="556" y="205" type="line"/>
      <point x="556" y="412"/>
      <point x="448" y="512"/>
      <point x="295" y="512" type="curve" smooth="yes"/>
      <point x="132" y="512"/>
      <point x="20" y="406"/>
      <point x="20" y="250" type="curve" smooth="yes"/>
      <point x="20" y="94"/>
      <point x="135" y="-12"/>
    </contour>
    <contour>
      <point x="134" y="205" type="line"/>
      <point x="473" y="205" type="line"/>
      <point x="473" y="315" type="line"/>
      <point x="135" y="315" type="line"/>
    </contour>
  </outline>
</glyph>
<glyph name="g" format="2">
  <advance width="614"/>
  <unicode hex="0067"/>
  <anchor x="305" y="-200" name="bottom"/>
  <anchor x="305" y="500" name="top"/>
  <outline>
    <contour>
      <point x="292" y="-214" type="curve" smooth="yes"/>
      <point x="474" y="-214"/>
      <point x="569" y="-107"/>
      <point x="569" y="60" type="curve" smooth="yes"/>
      <point x="569" y="500" type="line"/>
      <point x="389" y="500" type="line"/>
      <point x="389" y="52" type="line" smooth="yes"/>
      <point x="389" y="-21"/>
      <point x="345" y="-56"/>
      <point x="283" y="-56" type="curve" smooth="yes"/>
      <point x="189" y="-56"/>
      <point x="145" y="-27"/>
      <point x="113" y="-11" type="curve"/>
      <point x="42" y="-154" type="line"/>
      <point x="90" y="-192"/>
      <point x="161" y="-214"/>
    </contour>
    <contour>
      <point x="246" y="24" type="curve" smooth="yes"/>
      <point x="360" y="24"/>
      <point x="428" y="108"/>
      <point x="428" y="250" type="curve" smooth="yes"/>
      <point x="428" y="415"/>
      <point x="360" y="512"/>
      <point x="246" y="512" type="curve" smooth="yes"/>
      <point x="104" y="512"/>
      <point x="20" y="416"/>
      <point x="20" y="254" type="curve" smooth="yes"/>
      <point x="20" y="110"/>
      <point x="104" y="24"/>
    </contour>
    <contour>
      <point x="301" y="173" type="curve" smooth="yes"/>
      <point x="253" y="173"/>
      <point x="220" y="210"/>
      <point x="219" y="261" type="curve" smooth="yes"/>
      <point x="220" y="314"/>
      <point x="252" y="350"/>
      <point x="300" y="350" type="curve" smooth="yes"/>
      <point x="349" y="350"/>
      <point x="380" y="314"/>
      <point x="380" y="261" type="curve" smooth="yes"/>
      <point x="380" y="210"/>
      <point x="350" y="173"/>
    </contour>
  </outline>
</glyph>
<glyph name="h" format="2">
  <advance width="580"/>
  <unicode hex="0068"/>
  <anchor x="290" y="0" name="bottom"/>
  <anchor x="290" y="400" name="center"/>
  <anchor x="135" y="700" name="top"/>
  <outline>
    <contour>
      <point x="47" y="0" type="line"/>
      <point x="227" y="0" type="line"/>
      <point x="227" y="700" type="line"/>
      <point x="47" y="700" type="line"/>
    </contour>
    <contour>
      <point x="360" y="0" type="line"/>
      <point x="540" y="0" type="line"/>
      <point x="540" y="256" type="line"/>
      <point x="360" y="256" type="line"/>
    </contour>
    <component base="arch" xOffset="185"/>
  </outline>
</glyph>
<glyph name="j" format="2">
  <advance width="311"/>
  <unicode hex="006A"/>
  <anchor x="163" y="500" name="top"/>
  <outline>
    <contour>
      <point x="163" y="542" type="curve" smooth="yes"/>
      <point x="219" y="542"/>
      <point x="266" y="589"/>
      <point x="266" y="645" type="curve" smooth="yes"/>
      <point x="266" y="701"/>
      <point x="219" y="748"/>
      <point x="163" y="748" type="curve" smooth="yes"/>
      <point x="107" y="748"/>
      <point x="60" y="701"/>
      <point x="60" y="645" type="curve" smooth="yes"/>
      <point x="60" y="589"/>
      <point x="107" y="542"/>
    </contour>
    <component base="jdotless"/>
  </outline>
</glyph>
<glyph name="l" format="2">
  <advance width="270"/>
  <unicode hex="006C"/>
  <anchor x="135" y="0" name="bottom"/>
  <anchor x="135" y="700" name="top"/>
  <anchor x="227" y="700" name="top_caron"/>
  <outline>
    <contour>
      <point x="45" y="0" type="line"/>
      <point x="225" y="0" type="line"/>
      <point x="225" y="700" type="line"/>
      <point x="45" y="700" type="line"/>
    </contour>
  </outline>
</glyph>
<glyph name="m" format="2">
  <advance width="891"/>
  <unicode hex="006D"/>
  <outline>
    <contour>
      <point x="45" y="0" type="line"/>
      <point x="225" y="0" type="line"/>
      <point x="225" y="266" type="line" smooth="yes"/>
      <point x="225" y="320"/>
      <point x="250" y="345"/>
      <point x="301" y="343" type="curve" smooth="yes"/>
      <point x="339" y="341"/>
      <point x="358" y="313"/>
      <point x="358" y="256" type="curve" smooth="yes"/>
      <point x="358" y="0" type="line"/>
      <point x="538" y="0" type="line"/>
      <point x="538" y="266" type="line" smooth="yes"/>
      <point x="538" y="320"/>
      <point x="563" y="345"/>
      <point x="614" y="343" type="curve" smooth="yes"/>
      <point x="652" y="341"/>
      <point x="671" y="313"/>
      <point x="671" y="256" type="curve" smooth="yes"/>
      <point x="671" y="0" type="line"/>
      <point x="851" y="0" type="line"/>
      <point x="851" y="286" type="line" smooth="yes"/>
      <point x="851" y="440"/>
      <point x="793" y="512"/>
      <point x="671" y="512" type="curve" smooth="yes"/>
      <point x="606" y="512"/>
      <point x="551" y="477"/>
      <point x="519" y="412" type="curve"/>
      <point x="493" y="480"/>
      <point x="440" y="512"/>
      <point x="358" y="512" type="curve" smooth="yes"/>
      <point x="302" y="512"/>
      <point x="254" y="487"/>
      <point x="222" y="439" type="curve"/>
      <point x="215" y="500" type="line"/>
      <point x="45" y="500" type="line"/>
    </contour>
  </outline>
</glyph>
<glyph name="n" format="2">
  <advance width="578"/>
  <unicode hex="006E"/>
  <anchor x="284" y="0" name="bottom"/>
  <anchor x="284" y="500" name="top"/>
  <outline>
    <contour>
      <point x="45" y="0" type="line"/>
      <point x="225" y="0" type="line"/>
      <point x="225" y="408" type="line"/>
      <point x="215" y="500" type="line"/>
      <point x="45" y="500" type="line"/>
    </contour>
    <contour>
      <point x="358" y="0" type="line"/>
      <point x="538" y="0" type="line"/>
      <point x="538" y="256" type="line"/>
      <point x="358" y="256" type="line"/>
    </contour>
    <component base="arch" xOffset="183"/>
  </outline>
</glyph>
<glyph name="p" format="2">
  <advance width="610"/>
  <unicode hex="0070"/>
  <outline>
    <contour>
      <point x="50" y="-200" type="line"/>
      <point x="230" y="-200" type="line"/>
      <point x="230" y="408" type="line"/>
      <point x="220" y="500" type="line"/>
      <point x="50" y="500" type="line"/>
    </contour>
    <component base="Bowl" xScale="-1.0" xOffset="601.0"/>
  </outline>
</glyph>
<glyph name="r" format="2">
  <advance width="417"/>
  <unicode hex="0072"/>
  <anchor x="164" y="0" name="bottom"/>
  <anchor x="188" y="500" name="top"/>
  <outline>
    <contour>
      <point x="183" y="255" type="curve"/>
      <point x="225" y="251" type="line"/>
      <point x="225" y="299"/>
      <point x="307" y="326"/>
      <point x="402" y="326" type="curve"/>
      <point x="402" y="502" type="line"/>
      <point x="294" y="502"/>
      <point x="183" y="417"/>
    </contour>
    <contour>
      <point x="45" y="0" type="line"/>
      <point x="225" y="0" type="line"/>
      <point x="225" y="500" type="line"/>
      <point x="45" y="500" type="line"/>
    </contour>
  </outline>
</glyph>
<glyph name="s" format="2">
  <advance width="491"/>
  <unicode hex="0073"/>
  <anchor x="244" y="1" name="bottom"/>
  <anchor x="247" y="500" name="top"/>
  <outline>
    <contour>
      <point x="234" y="-12" type="curve" smooth="yes"/>
      <point x="373" y="-12"/>
      <point x="466" y="45"/>
      <point x="466" y="143" type="curve" smooth="yes"/>
      <point x="466" y="228"/>
      <point x="405" y="286"/>
      <point x="314" y="308" type="curve" smooth="yes"/>
      <point x="273" y="318" type="line" smooth="yes"/>
      <point x="233" y="328"/>
      <point x="214" y="339"/>
      <point x="214" y="355" type="curve" smooth="yes"/>
      <point x="214" y="370"/>
      <point x="227" y="382"/>
      <point x="250" y="382" type="curve" smooth="yes"/>
      <point x="282" y="382"/>
      <point x="304" y="371"/>
      <point x="314" y="344" type="curve"/>
      <point x="453" y="397" type="line"/>
      <point x="424" y="465"/>
      <point x="365" y="512"/>
      <point x="247" y="512" type="curve" smooth="yes"/>
      <point x="117" y="512"/>
      <point x="37" y="454"/>
      <point x="37" y="351" type="curve" smooth="yes"/>
      <point x="37" y="276"/>
      <point x="83" y="216"/>
      <point x="172" y="194" type="curve" smooth="yes"/>
      <point x="213" y="184" type="line" smooth="yes"/>
      <point x="252" y="174"/>
      <point x="270" y="162"/>
      <point x="270" y="144" type="curve" smooth="yes"/>
      <point x="270" y="126"/>
      <point x="255" y="117"/>
      <point x="234" y="117" type="curve" smooth="yes"/>
      <point x="214" y="117"/>
      <point x="183" y="123"/>
      <point x="168" y="159" type="curve"/>
      <point x="25" y="103" type="line"/>
      <point x="49" y="31"/>
      <point x="134" y="-12"/>
    </contour>
  </outline>
</glyph>
<glyph name="t" format="2">
  <advance width="425"/>
  <unicode hex="0074"/>
  <anchor x="233" y="0" name="bottom"/>
  <anchor x="213" y="250" name="center"/>
  <anchor x="213" y="500" name="top"/>
  <anchor x="275" y="700" name="top_caron"/>
  <anchor x="405" y="800" name="topright"/>
  <outline>
    <contour>
      <point x="278" y="-12" type="curve" smooth="yes"/>
      <point x="325" y="-12"/>
      <point x="379" y="13"/>
      <point x="410" y="40" type="curve"/>
      <point x="349" y="170" type="line"/>
      <point x="340" y="163"/>
      <point x="321" y="155"/>
      <point x="310" y="155" type="curve" smooth="yes"/>
      <point x="285" y="155"/>
      <point x="275" y="169"/>
      <point x="275" y="207" type="curve" smooth="yes"/>
      <point x="275" y="656" type="line"/>
      <point x="95" y="656" type="line"/>
      <point x="95" y="158" type="line" smooth="yes"/>
      <point x="95" y="48"/>
      <point x="154" y="-12"/>
    </contour>
    <contour>
      <point x="20" y="350" type="line"/>
      <point x="378" y="350" type="line"/>
      <point x="378" y="500" type="line"/>
      <point x="20" y="500" type="line"/>
    </contour>
  </outline>
</glyph>
<glyph name="u" format="2">
  <advance width="578"/>
  <unicode hex="0075"/>
  <anchor x="294" y="0" name="bottom"/>
  <anchor x="543" y="0" name="ogonek"/>
  <anchor x="286" y="500" name="top"/>
  <anchor x="568" y="500" name="topright"/>
  <outline>
    <contour>
      <point x="363" y="0" type="line"/>
      <point x="533" y="0" type="line"/>
      <point x="533" y="500" type="line"/>
      <point x="353" y="500" type="line"/>
      <point x="353" y="92" type="line"/>
    </contour>
    <contour>
      <point x="40" y="244" type="line"/>
      <point x="220" y="244" type="line"/>
      <point x="220" y="500" type="line"/>
      <point x="40" y="500" type="line"/>
    </contour>
    <component base="arch" xScale="-1.0" yScale="-1.0" xOffset="395" yOffset="500"/>
  </outline>
</glyph>
<glyph name="w" format="2">
  <advance width="883"/>
  <unicode hex="0077"/>
  <anchor x="442" y="500" name="top"/>
  <outline>
    <contour>
      <point x="527" y="0" type="line"/>
      <point x="702" y="0" type="line"/>
      <point x="873" y="500" type="line"/>
      <point x="689" y="500" type="line"/>
    </contour>
    <contour>
      <point x="201" y="0" type="line"/>
      <point x="356" y="0" type="line"/>
      <point x="504" y="500" type="line"/>
      <point x="353" y="500" type="line"/>
    </contour>
    <contour>
      <point x="180" y="0" type="line"/>
      <point x="345" y="0" type="line"/>
      <point x="194" y="500" type="line"/>
      <point x="10" y="500" type="line"/>
    </contour>
    <contour>
      <point x="526" y="0" type="line"/>
      <point x="681" y="0" type="line"/>
      <point x="530" y="500" type="line"/>
      <point x="379" y="500" type="line"/>
    </contour>
  </outline>
</glyph>
<glyph name="y" format="2">
  <advance width="622"/>
  <unicode hex="0079"/>
  <anchor x="311" y="500" name="top"/>
  <outline>
    <contour>
      <point x="196" y="-212" type="curve" smooth="yes"/>
      <point x="322" y="-212"/>
      <point x="360" y="-130"/>
      <point x="407" y="-18" type="curve" smooth="yes"/>
      <point x="622" y="500" type="line"/>
      <point x="422" y="500" type="line"/>
      <point x="287" y="130" type="line"/>
      <point x="227" y="-10" type="line" smooth="yes"/>
      <point x="216" y="-36"/>
      <point x="195" y="-45"/>
      <point x="174" y="-45" type="curve" smooth="yes"/>
      <point x="159" y="-45"/>
      <point x="141" y="-37"/>
      <point x="127" y="-25" type="curve"/>
      <point x="60" y="-170" type="line"/>
      <point x="90" y="-190"/>
      <point x="149" y="-212"/>
    </contour>
    <contour>
      <point x="240" y="0" type="line"/>
      <point x="410" y="0" type="line"/>
      <point x="349" y="130" type="line"/>
      <point x="200" y="500" type="line"/>
      <point x="0" y="500" type="line"/>
    </contour>
  </outline>
</glyph>
<glyph name="z" format="2">
  <advance width="464"/>
  <unicode hex="007A"/>
  <anchor x="232" y="500" name="top"/>
  <outline>
    <contour>
      <point x="128" y="14" type="line"/>
      <point x="444" y="375" type="line"/>
      <point x="341" y="490" type="line"/>
      <point x="20" y="125" type="line"/>
    </contour>
    <contour>
      <point x="20" y="0" type="line"/>
      <point x="444" y="0" type="line"/>
      <point x="444" y="144" type="line"/>
      <point x="123" y="144" type="line"/>
      <point x="20" y="125" type="line"/>
    </contour>
    <contour>
      <point x="20" y="355" type="line"/>
      <point x="336" y="355" type="line"/>
      <point x="444" y="375" type="line"/>
      <point x="444" y="500" type="line"/>
      <point x="20" y="500" type="line"/>
    </contour>
  </outline>
</glyph>
<glyph name="bar" format="2">
  <advance width="255"/>
  <unicode hex="007C"/>
  <outline>
    <contour>
      <point x="60" y="-220" type="line"/>
      <point x="195" y="-220" type="line"/>
      <point x="195" y="790" type="line"/>
      <point x="60" y="790" type="line"/>
    </contour>
  </outline>
</glyph>
<glyph name="asciitilde" format="2">
  <advance width="759"/>
  <unicode hex="007E"/>
  <outline>
    <contour>
      <point x="510" y="145" type="curve" smooth="yes"/>
      <point x="621" y="145"/>
      <point x="709" y="245"/>
      <point x="709" y="388" type="curve"/>
      <point x="569" y="388" type="line"/>
      <point x="565" y="342"/>
      <point x="542" y="320"/>
      <point x="509" y="320" type="curve" smooth="yes"/>
      <point x="479" y="320"/>
      <point x="455" y="354"/>
      <point x="442" y="383" type="curve" smooth="yes"/>
      <point x="404" y="467"/>
      <point x="339" y="488"/>
      <point x="249" y="488" type="curve" smooth="yes"/>
      <point x="138" y="488"/>
      <point x="50" y="388"/>
      <point x="50" y="245" type="curve"/>
      <point x="190" y="245" type="line"/>
      <point x="195" y="285"/>
      <point x="213" y="313"/>
      <point x="253" y="313" type="curve" smooth="yes"/>
      <point x="292" y="313"/>
      <point x="309" y="278"/>
      <point x="326" y="250" type="curve" smooth="yes"/>
      <point x="357" y="198"/>
      <point x="417" y="145"/>
    </contour>
  </outline>
</glyph>
<glyph name="cent" format="2">
  <advance width="545"/>
  <unicode hex="00A2"/>
  <anchor x="302" y="109" name="bottom"/>
  <anchor x="300" y="610" name="top"/>
  <outline>
    <contour>
      <point x="248" y="0" type="line"/>
      <point x="331" y="0" type="line"/>
      <point x="331" y="700" type="line"/>
      <point x="248" y="700" type="line"/>
    </contour>
    <component base="c" yOffset="110"/>
  </outline>
</glyph>
<glyph name="sterling" format="2">
  <advance width="613"/>
  <unicode hex="00A3"/>
  <outline>
    <contour>
      <point x="105" y="230" type="line"/>
      <point x="285" y="240" type="line"/>
      <point x="285" y="476" type="line" smooth="yes"/>
      <point x="285" y="532"/>
      <point x="308" y="560"/>
      <point x="346" y="560" type="curve" smooth="yes"/>
      <point x="377" y="560"/>
      <point x="403" y="542"/>
      <point x="403" y="504" type="curve"/>
      <point x="583" y="493" type="line"/>
      <point x="583" y="644"/>
      <point x="486" y="712"/>
      <point x="348" y="712" type="curve" smooth="yes"/>
      <point x="202" y="712"/>
      <point x="105" y="638"/>
      <point x="105" y="476" type="curve" smooth="yes"/>
    </contour>
    <contour>
      <point x="54" y="88" type="line"/>
      <point x="179" y="88"/>
      <point x="285" y="157"/>
      <point x="285" y="240" type="curve"/>
      <point x="105" y="230" type="line"/>
      <point x="105" y="197"/>
      <point x="82" y="170"/>
      <point x="54" y="170" type="curve"/>
    </contour>
    <contour>
      <point x="40" y="0" type="line"/>
      <point x="583" y="0" type="line"/>
      <point x="583" y="170" type="line"/>
      <point x="40" y="170" type="line"/>
    </contour>
    <contour>
      <point x="40" y="272" type="line"/>
      <point x="493" y="272" type="line"/>
      <point x="493" y="412" type="line"/>
      <point x="40" y="412" type="line"/>
    </contour>
  </outline>
</glyph>
<glyph name="currency" format="2">
  <advance width="638"/>
  <unicode hex="00A4"/>
  <outline>
    <contour>
      <point x="321" y="131" type="curve" smooth="yes"/>
      <point x="453" y="131"/>
      <point x="546" y="222"/>
      <point x="546" y="350" type="curve" smooth="yes"/>
      <point x="546" y="478"/>
      <point x="453" y="569"/>
      <point x="319" y="569" type="curve" smooth="yes"/>
      <point x="186" y="569"/>
      <point x="93" y="478"/>
      <point x="93" y="350" type="curve" smooth="yes"/>
      <point x="93" y="222"/>
      <point x="187" y="131"/>
    </contour>
    <contour>
      <point x="158" y="91" type="line"/>
      <point x="305" y="238" type="line"/>
      <point x="205" y="333" type="line"/>
      <point x="61" y="188" type="line"/>
    </contour>
    <contour>
      <point x="320" y="281" type="curve" smooth="yes"/>
      <point x="281" y="281"/>
      <point x="253" y="310"/>
      <point x="253" y="350" type="curve" smooth="yes"/>
      <point x="253" y="390"/>
      <point x="281" y="419"/>
      <point x="319" y="419" type="curve" smooth="yes"/>
      <point x="358" y="419"/>
      <point x="386" y="390"/>
      <point x="386" y="350" type="curve" smooth="yes"/>
      <point x="386" y="310"/>
      <point x="359" y="281"/>
    </contour>
    <contour>
      <point x="217" y="359" type="line"/>
      <point x="316" y="454" type="line"/>
      <point x="157" y="609" type="line"/>
      <point x="60" y="512" type="line"/>
    </contour>
    <contour>
      <point x="481" y="91" type="line"/>
      <point x="578" y="188" type="line"/>
      <point x="431" y="333" type="line"/>
      <point x="332" y="238" type="line"/>
    </contour>
    <contour>
      <point x="424" y="368" type="line"/>
      <point x="578" y="512" type="line"/>
      <point x="481" y="609" type="line"/>
      <point x="324" y="463" type="line"/>
    </contour>
  </outline>
</glyph>
<glyph name="yen" format="2">
  <advance width="646"/>
  <unicode hex="00A5"/>
  <outline>
    <contour>
      <point x="409" y="287" type="line"/>
      <point x="641" y="700" type="line"/>
      <point x="431" y="700" type="line"/>
      <point x="238" y="318" type="line"/>
    </contour>
    <contour>
      <point x="231" y="0" type="line"/>
      <point x="416" y="0" type="line"/>
      <point x="416" y="336" type="line"/>
      <point x="231" y="336" type="line"/>
    </contour>
    <contour>
      <point x="85" y="164" type="line"/>
      <point x="560" y="164" type="line"/>
      <point x="560" y="256" type="line"/>
      <point x="85" y="256" type="line"/>
    </contour>
    <contour>
      <point x="85" y="284" type="line"/>
      <point x="560" y="284" type="line"/>
      <point x="560" y="376" type="line"/>
      <point x="85" y="376" type="line"/>
    </contour>
    <contour>
      <point x="237" y="287" type="line"/>
      <point x="408" y="318" type="line"/>
      <point x="215" y="700" type="line"/>
      <point x="5" y="700" type="line"/>
    </contour>
  </outline>
</glyph>
<glyph name="section" format="2">
  <advance width="482"/>
  <unicode hex="00A7"/>
  <outline>
    <contour>
      <point x="244" y="-91" type="curve" smooth="yes"/>
      <point x="373" y="-91"/>
      <point x="447" y="-29"/>
      <point x="447" y="75" type="curve" smooth="yes"/>
      <point x="447" y="151"/>
      <point x="395" y="216"/>
      <point x="310" y="239" type="curve" smooth="yes"/>
      <point x="229" y="261" type="line" smooth="yes"/>
      <point x="196" y="270"/>
      <point x="175" y="284"/>
      <point x="175" y="308" type="curve" smooth="yes"/>
      <point x="175" y="345"/>
      <point x="200" y="364"/>
      <point x="244" y="364" type="curve" smooth="yes"/>
      <point x="287" y="364"/>
      <point x="313" y="338"/>
      <point x="321" y="310" type="curve"/>
      <point x="444" y="349" type="line"/>
      <point x="411" y="433"/>
      <point x="346" y="476"/>
      <point x="245" y="476" type="curve" smooth="yes"/>
      <point x="118" y="476"/>
      <point x="42" y="413"/>
      <point x="42" y="308" type="curve" smooth="yes"/>
      <point x="42" y="227"/>
      <point x="95" y="171"/>
      <point x="177" y="149" type="curve" smooth="yes"/>
      <point x="256" y="128" type="line" smooth="yes"/>
      <point x="292" y="118"/>
      <point x="312" y="100"/>
      <point x="312" y="75" type="curve" smooth="yes"/>
      <point x="312" y="40"/>
      <point x="280" y="20"/>
      <point x="240" y="21" type="curve" smooth="yes"/>
      <point x="198" y="22"/>
      <point x="167" y="46"/>
      <point x="157" y="78" type="curve"/>
      <point x="30" y="39" type="line"/>
      <point x="42" y="-30"/>
      <point x="137" y="-91"/>
    </contour>
    <contour>
      <point x="247" y="145" type="curve" smooth="yes"/>
      <point x="376" y="145"/>
      <point x="450" y="207"/>
      <point x="450" y="310" type="curve" smooth="yes"/>
      <point x="450" y="387"/>
      <point x="398" y="454"/>
      <point x="313" y="475" type="curve" smooth="yes"/>
      <point x="233" y="495" type="line" smooth="yes"/>
      <point x="200" y="503"/>
      <point x="178" y="520"/>
      <point x="178" y="544" type="curve" smooth="yes"/>
      <point x="178" y="581"/>
      <point x="203" y="600"/>
      <point x="247" y="600" type="curve" smooth="yes"/>
      <point x="290" y="600"/>
      <point x="316" y="574"/>
      <point x="324" y="546" type="curve"/>
      <point x="451" y="586" type="line"/>
      <point x="417" y="669"/>
      <point x="352" y="712"/>
      <point x="248" y="712" type="curve" smooth="yes"/>
      <point x="121" y="712"/>
      <point x="45" y="649"/>
      <point x="45" y="544" type="curve" smooth="yes"/>
      <point x="45" y="463"/>
      <point x="98" y="407"/>
      <point x="180" y="385" type="curve" smooth="yes"/>
      <point x="259" y="364" type="line" smooth="yes"/>
      <point x="295" y="354"/>
      <point x="315" y="336"/>
      <point x="315" y="310" type="curve" smooth="yes"/>
      <point x="315" y="276"/>
      <point x="283" y="257"/>
      <point x="244" y="257" type="curve" smooth="yes"/>
      <point x="225" y="257"/>
      <point x="170" y="282"/>
      <point x="160" y="313" type="curve"/>
      <point x="49" y="280" type="line"/>
      <point x="60" y="208"/>
      <point x="148" y="145"/>
    </contour>
  </outline>
</glyph>
<glyph name="ordfeminine" format="2">
  <advance width="343"/>
  <unicode hex="00AA"/>
  <anchor x="156" y="400" name="bottom"/>
  <anchor x="300" y="406" name="ogonek"/>
  <anchor x="156" y="700" name="top"/>
  <outline>
    <contour>
      <point x="201" y="400" type="line"/>
      <point x="315" y="400" type="line"/>
      <point x="315" y="570" type="line" smooth="yes"/>
      <point x="315" y="650"/>
      <point x="255" y="707"/>
      <point x="157" y="707" type="curve" smooth="yes"/>
      <point x="87" y="707"/>
      <point x="43" y="674"/>
      <point x="14" y="624" type="curve"/>
      <point x="120" y="592" type="line"/>
      <point x="133" y="607"/>
      <point x="140" y="612"/>
      <point x="154" y="612" type="curve" smooth="yes"/>
      <point x="201" y="612"/>
      <point x="198" y="581"/>
      <point x="199" y="545" type="curve" smooth="yes"/>
    </contour>
    <contour>
      <point x="124" y="393" type="curve" smooth="yes"/>
      <point x="188" y="393"/>
      <point x="226" y="441"/>
      <point x="226" y="528" type="curve"/>
      <point x="195" y="515" type="line"/>
      <point x="195" y="491"/>
      <point x="179" y="476"/>
      <point x="155" y="476" type="curve"/>
      <point x="141" y="476"/>
      <point x="134" y="480"/>
      <point x="134" y="487" type="curve"/>
      <point x="134" y="501"/>
      <point x="148" y="510"/>
      <point x="172" y="510" type="curve"/>
      <point x="208" y="510" type="line"/>
      <point x="208" y="576" type="line"/>
      <point x="124" y="576" type="line" smooth="yes"/>
      <point x="56" y="576"/>
      <point x="14" y="548"/>
      <point x="14" y="485" type="curve" smooth="yes"/>
      <point x="14" y="425"/>
      <point x="55" y="393"/>
    </contour>
  </outline>
</glyph>
<glyph name="logicalnot" format="2">
  <advance width="640"/>
  <unicode hex="00AC"/>
  <outline>
    <contour>
      <point x="130" y="265" type="line"/>
      <point x="500" y="265" type="line"/>
      <point x="500" y="409" type="line"/>
      <point x="130" y="409" type="line"/>
    </contour>
    <contour>
      <point x="356" y="135" type="line"/>
      <point x="500" y="135" type="line"/>
      <point x="500" y="409" type="line"/>
      <point x="356" y="409" type="line"/>
    </contour>
  </outline>
</glyph>
<glyph name="registered" format="2">
  <advance width="608"/>
  <unicode hex="00AE"/>
  <outline>
    <contour>
      <point x="304" y="144" type="curve" smooth="yes"/>
      <point x="461" y="144"/>
      <point x="588" y="271"/>
      <point x="588" y="428" type="curve" smooth="yes"/>
      <point x="588" y="585"/>
      <point x="461" y="712"/>
      <point x="304" y="712" type="curve" smooth="yes"/>
      <point x="147" y="712"/>
      <point x="20" y="585"/>
      <point x="20" y="428" type="curve" smooth="yes"/>
      <point x="20" y="271"/>
      <point x="147" y="144"/>
    </contour>
    <contour>
      <point x="304" y="220" type="curve"/>
      <point x="180" y="220"/>
      <point x="98" y="303"/>
      <point x="98" y="428" type="curve"/>
      <point x="98" y="553"/>
      <point x="180" y="636"/>
      <point x="304" y="636" type="curve"/>
      <point x="428" y="636"/>
      <point x="510" y="553"/>
      <point x="510" y="428" type="curve"/>
      <point x="510" y="303"/>
      <point x="428" y="220"/>
    </contour>
    <contour>
      <point x="195" y="292" type="line"/>
      <point x="272" y="292" type="line"/>
      <point x="272" y="384" type="line"/>
      <point x="299" y="384" type="line"/>
      <point x="352" y="292" type="line"/>
      <point x="440" y="292" type="line"/>
      <point x="376" y="398" type="line"/>
      <point x="408" y="414"/>
      <point x="428" y="446"/>
      <point x="428" y="484" type="curve" smooth="yes"/>
      <point x="428" y="542"/>
      <point x="382" y="584"/>
      <point x="316" y="584" type="curve" smooth="yes"/>
      <point x="195" y="583" type="line"/>
    </contour>
    <contour>
      <point x="272" y="455" type="line"/>
      <point x="272" y="513" type="line"/>
      <point x="312" y="513" type="line" smooth="yes"/>
      <point x="332" y="513"/>
      <point x="347" y="501"/>
      <point x="347" y="484" type="curve" smooth="yes"/>
      <point x="347" y="467"/>
      <point x="332" y="455"/>
      <point x="312" y="455" type="curve" smooth="yes"/>
    </contour>
  </outline>
</glyph>
<glyph name="degree" format="2">
  <advance width="387"/>
  <unicode hex="00B0"/>
  <outline>
    <contour>
      <point x="193" y="403" type="curve" smooth="yes"/>
      <point x="281" y="403"/>
      <point x="357" y="472"/>
      <point x="357" y="561" type="curve" smooth="yes"/>
      <point x="357" y="648"/>
      <point x="281" y="716"/>
      <point x="193" y="716" type="curve" smooth="yes"/>
      <point x="106" y="716"/>
      <point x="30" y="648"/>
      <point x="30" y="561" type="curve" smooth="yes"/>
      <point x="30" y="473"/>
      <point x="105" y="403"/>
    </contour>
    <contour>
      <point x="193" y="513" type="curve" smooth="yes"/>
      <point x="170" y="513"/>
      <point x="150" y="535"/>
      <point x="150" y="561" type="curve" smooth="yes"/>
      <point x="150" y="586"/>
      <point x="170" y="606"/>
      <point x="193" y="606" type="curve" smooth="yes"/>
      <point x="217" y="606"/>
      <point x="237" y="586"/>
      <point x="237" y="561" type="curve" smooth="yes"/>
      <point x="237" y="535"/>
      <point x="217" y="513"/>
    </contour>
  </outline>
</glyph>
<glyph name="plusminus" format="2">
  <advance width="640"/>
  <unicode hex="00B1"/>
  <outline>
    <contour>
      <point x="85" y="328" type="line"/>
      <point x="555" y="328" type="line"/>
      <point x="555" y="458" type="line"/>
      <point x="85" y="458" type="line"/>
    </contour>
    <contour>
      <point x="85" y="30" type="line"/>
      <point x="555" y="30" type="line"/>
      <point x="555" y="150" type="line"/>
      <point x="85" y="150" type="line"/>
    </contour>
    <contour>
      <point x="250" y="178" type="line"/>
      <point x="390" y="178" type="line"/>
      <point x="390" y="608" type="line"/>
      <point x="250" y="608" type="line"/>
    </contour>
  </outline>
</glyph>
<glyph name="micro" format="2">
  <advance width="578"/>
  <unicode hex="00B5"/>
  <outline>
    <contour>
      <point x="281" y="-12" type="curve" smooth="yes"/>
      <point x="361" y="-12"/>
      <point x="402" y="76"/>
      <point x="402" y="234" type="curve"/>
      <point x="353" y="234" type="line"/>
      <point x="353" y="180"/>
      <point x="328" y="155"/>
      <point x="277" y="157" type="curve" smooth="yes"/>
      <point x="239" y="159"/>
      <point x="220" y="187"/>
      <point x="220" y="244" type="curve"/>
      <point x="153" y="214" type="line"/>
      <point x="152" y="60"/>
      <point x="201" y="-12"/>
    </contour>
    <contour>
      <point x="40" y="-200" type="line"/>
      <point x="200" y="-200" type="line"/>
      <point x="200" y="99" type="line"/>
      <point x="220" y="99" type="line"/>
      <point x="220" y="500" type="line"/>
      <point x="40" y="500" type="line"/>
    </contour>
    <contour>
      <point x="363" y="0" type="line"/>
      <point x="533" y="0" type="line"/>
      <point x="533" y="500" type="line"/>
      <point x="353" y="500" type="line"/>
      <point x="353" y="92" type="line"/>
    </contour>
  </outline>
</glyph>
<glyph name="paragraph" format="2">
  <advance width="621"/>
  <unicode hex="00B6"/>
  <outline>
    <contour>
      <point x="275" y="210" type="curve" smooth="yes"/>
      <point x="316" y="210" type="line"/>
      <point x="316" y="700" type="line"/>
      <point x="275" y="700" type="line" smooth="yes"/>
      <point x="117" y="700"/>
      <point x="5" y="600"/>
      <point x="5" y="456" type="curve" smooth="yes"/>
      <point x="5" y="312"/>
      <point x="117" y="210"/>
    </contour>
    <contour>
      <point x="282" y="-84" type="line"/>
      <point x="399" y="-84" type="line"/>
      <point x="399" y="700" type="line"/>
      <point x="282" y="700" type="line"/>
    </contour>
    <contour>
      <point x="444" y="-84" type="line"/>
      <point x="561" y="-84" type="line"/>
      <point x="561" y="700" type="line"/>
      <point x="444" y="700" type="line"/>
    </contour>
    <contour>
      <point x="388" y="530" type="line"/>
      <point x="455" y="530" type="line"/>
      <point x="455" y="700" type="line"/>
      <point x="388" y="700" type="line"/>
    </contour>
  </outline>
</glyph>
<glyph name="ordmasculine" format="2">
  <advance width="359"/>
  <unicode hex="00BA"/>
  <anchor x="176" y="400" name="bottom"/>
  <anchor x="176" y="550" name="center"/>
  <anchor x="321" y="406" name="ogonek"/>
  <anchor x="176" y="700" name="top"/>
  <anchor x="345" y="700" name="topright"/>
  <outline>
    <contour>
      <point x="181" y="393" type="curve" smooth="yes"/>
      <point x="277" y="393"/>
      <point x="345" y="458"/>
      <point x="345" y="550" type="curve" smooth="yes"/>
      <point x="345" y="642"/>
      <point x="277" y="707"/>
      <point x="179" y="707" type="curve" smooth="yes"/>
      <point x="82" y="707"/>
      <point x="14" y="642"/>
      <point x="14" y="550" type="curve" smooth="yes"/>
      <point x="14" y="458"/>
      <point x="83" y="393"/>
    </contour>
    <contour>
      <point x="181" y="504" type="curve" smooth="yes"/>
      <point x="155" y="504"/>
      <point x="138" y="523"/>
      <point x="138" y="550" type="curve" smooth="yes"/>
      <point x="138" y="577"/>
      <point x="155" y="597"/>
      <point x="179" y="597" type="curve" smooth="yes"/>
      <point x="204" y="597"/>
      <point x="222" y="577"/>
      <point x="222" y="550" type="curve" smooth="yes"/>
      <point x="222" y="523"/>
      <point x="204" y="504"/>
    </contour>
  </outline>
</glyph>
<glyph name="AE" format="2">
  <advance width="1033"/>
  <unicode hex="00C6"/>
  <outline>
    <contour>
      <point x="7" y="0" type="line"/>
      <point x="217" y="0" type="line"/>
      <point x="567" y="700" type="line"/>
      <point x="375" y="700" type="line"/>
    </contour>
    <contour>
      <point x="192" y="112" type="line"/>
      <point x="604" y="112" type="line"/>
      <point x="604" y="275" type="line"/>
      <point x="192" y="275" type="line"/>
    </contour>
    <contour>
      <point x="637" y="0" type="line"/>
      <point x="983" y="0" type="line"/>
      <point x="983" y="170" type="line"/>
      <point x="637" y="170" type="line"/>
    </contour>
    <contour>
      <point x="507" y="0" type="line"/>
      <point x="697" y="0" type="line"/>
      <point x="697" y="700" type="line"/>
      <point x="507" y="700" type="line"/>
    </contour>
    <contour>
      <point x="637" y="268" type="line"/>
      <point x="922" y="268" type="line"/>
      <point x="922" y="433" type="line"/>
      <point x="637" y="433" type="line"/>
    </contour>
    <contour>
      <point x="384" y="530" type="line"/>
      <point x="976" y="530" type="line"/>
      <point x="976" y="700" type="line"/>
      <point x="384" y="700" type="line"/>
    </contour>
  </outline>
</glyph>
<glyph name="Idieresis" format="2">
  <advance width="330"/>
  <unicode hex="00CF"/>
  <anchor x="165" y="700" name="_top"/>
  <anchor x="165" y="948" name="top"/>
  <anchor x="155" y="0" name="bottom"/>
  <anchor x="255" y="0" name="ogonek"/>
  <anchor x="10" y="700" name="topleft"/>
  <outline>
    <contour>
      <point x="265" y="769" type="curve" smooth="yes"/>
      <point x="312" y="769"/>
      <point x="353" y="810"/>
      <point x="353" y="857" type="curve" smooth="yes"/>
      <point x="353" y="904"/>
      <point x="312" y="945"/>
      <point x="265" y="945" type="curve" smooth="yes"/>
      <point x="218" y="945"/>
      <point x="177" y="904"/>
      <point x="177" y="857" type="curve" smooth="yes"/>
      <point x="177" y="810"/>
      <point x="218" y="769"/>
    </contour>
    <contour>
      <point x="65" y="769" type="curve" smooth="yes"/>
      <point x="113" y="769"/>
      <point x="153" y="809"/>
      <point x="153" y="857" type="curve" smooth="yes"/>
      <point x="153" y="905"/>
      <point x="113" y="945"/>
      <point x="65" y="945" type="curve" smooth="yes"/>
      <point x="17" y="945"/>
      <point x="-23" y="905"/>
      <point x="-23" y="857" type="curve" smooth="yes"/>
      <point x="-23" y="809"/>
      <point x="17" y="769"/>
    </contour>
    <component base="I"/>
  </outline>
</glyph>
<glyph name="Eth" format="2">
  <advance width="741"/>
  <unicode hex="00D0"/>
  <anchor x="333" y="700" name="top"/>
  <outline>
    <contour>
      <point x="40" y="287" type="line"/>
      <point x="378" y="287" type="line"/>
      <point x="378" y="414" type="line"/>
      <point x="40" y="414" type="line"/>
    </contour>
    <component base="D" xOffset="30"/>
  </outline>
</glyph>
<glyph name="multiply" format="2">
  <advance width="640"/>
  <unicode hex="00D7"/>
  <outline>
    <contour>
      <point x="442" y="79" type="line"/>
      <point x="539" y="176" type="line"/>
      <point x="198" y="517" type="line"/>
      <point x="101" y="420" type="line"/>
    </contour>
    <contour>
      <point x="198" y="79" type="line"/>
      <point x="538" y="420" type="line"/>
      <point x="441" y="517" type="line"/>
      <point x="101" y="176" type="line"/>
    </contour>
  </outline>
</glyph>
<glyph name="Oslash" format="2">
  <advance width="814"/>
  <unicode hex="00D8"/>
  <anchor x="402" y="0" name="bottom"/>
  <anchor x="402" y="350" name="center"/>
  <anchor x="724" y="10" name="ogonek"/>
  <anchor x="402" y="700" name="top"/>
  <anchor x="18" y="700" name="topleft"/>
  <anchor x="785" y="700" name="topright"/>
  <outline>
    <contour>
      <point x="30" y="0" type="line"/>
      <point x="181" y="0" type="line"/>
      <point x="784" y="700" type="line"/>
      <point x="632" y="700" type="line"/>
    </contour>
    <component base="O" xOffset="3"/>
  </outline>
</glyph>
<glyph name="Thorn" format="2">
  <advance width="645"/>
  <unicode hex="00DE"/>
  <outline>
    <contour>
      <point x="234" y="111" type="line"/>
      <point x="365" y="111" type="line" smooth="yes"/>
      <point x="523" y="111"/>
      <point x="635" y="213"/>
      <point x="635" y="357" type="curve" smooth="yes"/>
      <point x="635" y="501"/>
      <point x="523" y="601"/>
      <point x="365" y="601" type="curve" smooth="yes"/>
      <point x="234" y="601" type="line"/>
      <point x="234" y="432" type="line"/>
      <point x="355" y="432" type="line" smooth="yes"/>
      <point x="405" y="432"/>
      <point x="440" y="401"/>
      <point x="440" y="357" type="curve" smooth="yes"/>
      <point x="440" y="312"/>
      <point x="405" y="281"/>
      <point x="355" y="281" type="curve" smooth="yes"/>
      <point x="234" y="281" type="line"/>
    </contour>
    <contour>
      <point x="70" y="1" type="line"/>
      <point x="260" y="1" type="line"/>
      <point x="260" y="701" type="line"/>
      <point x="70" y="701" type="line"/>
    </contour>
  </outline>
</glyph>
<glyph name="germandbls" format="2">
  <advance width="609"/>
  <unicode hex="00DF"/>
  <outline>
    <contour>
      <point x="45" y="0" type="line"/>
      <point x="225" y="0" type="line"/>
      <point x="225" y="476" type="line" smooth="yes"/>
      <point x="225" y="532"/>
      <point x="255" y="560"/>
      <point x="304" y="560" type="curve" smooth="yes"/>
      <point x="345" y="560"/>
      <point x="379" y="541"/>
      <point x="379" y="502" type="curve" smooth="yes"/>
      <point x="379" y="459"/>
      <point x="350" y="435"/>
      <point x="306" y="435" type="curve" smooth="yes"/>
      <point x="294" y="435" type="line"/>
      <point x="294" y="294" type="line"/>
      <point x="330" y="294" type="line" smooth="yes"/>
      <point x="466" y="294"/>
      <point x="559" y="402"/>
      <point x="559" y="499" type="curve" smooth="yes"/>
      <point x="559" y="646"/>
      <point x="455" y="712"/>
      <point x="306" y="712" type="curve" smooth="yes"/>
      <point x="149" y="712"/>
      <point x="45" y="638"/>
      <point x="45" y="476" type="curve" smooth="yes"/>
    </contour>
    <contour>
      <point x="294" y="0" type="line"/>
      <point x="352" y="0" type="line" smooth="yes"/>
      <point x="488" y="0"/>
      <point x="584" y="72"/>
      <point x="584" y="202" type="curve" smooth="yes"/>
      <point x="584" y="357"/>
      <point x="501" y="409"/>
      <point x="305" y="409" type="curve" smooth="yes"/>
      <point x="294" y="409" type="line"/>
      <point x="294" y="276" type="line"/>
      <point x="330" y="276" type="line" smooth="yes"/>
      <point x="372" y="276"/>
      <point x="402" y="254"/>
      <point x="402" y="221" type="curve" smooth="yes"/>
      <point x="402" y="191"/>
      <point x="374" y="163"/>
      <point x="330" y="163" type="curve" smooth="yes"/>
      <point x="294" y="163" type="line"/>
    </contour>
  </outline>
</glyph>
<glyph name="ae" format="2">
  <advance width="872"/>
  <unicode hex="00E6"/>
  <anchor x="589" y="0" name="bottom"/>
  <anchor x="791" y="50" name="ogonek"/>
  <anchor x="601" y="500" name="top"/>
  <outline>
    <contour>
      <point x="337" y="160" type="line"/>
      <point x="466" y="160" type="line"/>
      <point x="466" y="281" type="line" smooth="yes"/>
      <point x="466" y="419"/>
      <point x="387" y="512"/>
      <point x="252" y="512" type="curve" smooth="yes"/>
      <point x="142" y="512"/>
      <point x="68" y="460"/>
      <point x="21" y="378" type="curve"/>
      <point x="180" y="328" type="line"/>
      <point x="201" y="356"/>
      <point x="218" y="368"/>
      <point x="248" y="368" type="curve" smooth="yes"/>
      <point x="328" y="368"/>
      <point x="328" y="315"/>
      <point x="332" y="245" type="curve" smooth="yes"/>
    </contour>
    <contour>
      <point x="204" y="-12" type="curve" smooth="yes"/>
      <point x="369" y="-12"/>
      <point x="467" y="69"/>
      <point x="467" y="214" type="curve"/>
      <point x="327" y="195" type="line"/>
      <point x="327" y="146"/>
      <point x="296" y="114"/>
      <point x="247" y="114" type="curve"/>
      <point x="217" y="114"/>
      <point x="200" y="125"/>
      <point x="200" y="145" type="curve"/>
      <point x="200" y="174"/>
      <point x="226" y="191"/>
      <point x="273" y="191" type="curve"/>
      <point x="351" y="191" type="line"/>
      <point x="351" y="294" type="line"/>
      <point x="204" y="294" type="line" smooth="yes"/>
      <point x="88" y="294"/>
      <point x="20" y="245"/>
      <point x="20" y="141" type="curve" smooth="yes"/>
      <point x="20" y="42"/>
      <point x="88" y="-12"/>
    </contour>
    <component base="e" xOffset="306"/>
  </outline>
</glyph>
<glyph name="idieresis" format="2">
  <advance width="290"/>
  <unicode hex="00EF"/>
  <anchor x="145" y="500" name="_top"/>
  <anchor x="145" y="748" name="top"/>
  <anchor x="145" y="0" name="bottom"/>
  <anchor x="245" y="0" name="ogonek"/>
  <outline>
    <contour>
      <point x="245" y="569" type="curve" smooth="yes"/>
      <point x="292" y="569"/>
      <point x="333" y="610"/>
      <point x="333" y="657" type="curve" smooth="yes"/>
      <point x="333" y="704"/>
      <point x="292" y="745"/>
      <point x="245" y="745" type="curve" smooth="yes"/>
      <point x="198" y="745"/>
      <point x="157" y="704"/>
      <point x="157" y="657" type="curve" smooth="yes"/>
      <point x="157" y="610"/>
      <point x="198" y="569"/>
    </contour>
    <contour>
      <point x="45" y="569" type="curve" smooth="yes"/>
      <point x="93" y="569"/>
      <point x="133" y="609"/>
      <point x="133" y="657" type="curve" smooth="yes"/>
      <point x="133" y="705"/>
      <point x="93" y="745"/>
      <point x="45" y="745" type="curve" smooth="yes"/>
      <point x="-3" y="745"/>
      <point x="-43" y="705"/>
      <point x="-43" y="657" type="curve" smooth="yes"/>
      <point x="-43" y="609"/>
      <point x="-3" y="569"/>
    </contour>
    <component base="idotless"/>
  </outline>
</glyph>
<glyph name="eth" format="2">
  <advance width="600"/>
  <unicode hex="00F0"/>
  <outline>
    <contour>
      <point x="20" y="250" type="curve" smooth="yes"/>
      <point x="20" y="96"/>
      <point x="133" y="-12"/>
      <point x="293" y="-12" type="curve" smooth="yes"/>
      <point x="451" y="-12"/>
      <point x="563" y="96"/>
      <point x="563" y="250" type="curve"/>
      <point x="469" y="363" type="line"/>
      <point x="469" y="434"/>
      <point x="356" y="512"/>
      <point x="265" y="512" type="curve" smooth="yes"/>
      <point x="115" y="512"/>
      <point x="20" y="403"/>
    </contour>
    <contour>
      <point x="205" y="250" type="curve" smooth="yes"/>
      <point x="205" y="306"/>
      <point x="241" y="346"/>
      <point x="291" y="346" type="curve" smooth="yes"/>
      <point x="342" y="346"/>
      <point x="378" y="306"/>
      <point x="378" y="250" type="curve" smooth="yes"/>
      <point x="378" y="194"/>
      <point x="343" y="154"/>
      <point x="293" y="154" type="curve" smooth="yes"/>
      <point x="241" y="154"/>
      <point x="205" y="194"/>
    </contour>
    <contour>
      <point x="282" y="642" type="line"/>
      <point x="370" y="575"/>
      <point x="401" y="500"/>
      <point x="401" y="328" type="curve"/>
      <point x="561" y="214" type="line"/>
      <point x="589" y="429"/>
      <point x="546" y="636"/>
      <point x="360" y="774" type="curve"/>
    </contour>
    <contour>
      <point x="282" y="577" type="line"/>
      <point x="353" y="508" type="line"/>
      <point x="531" y="683" type="line"/>
      <point x="459" y="752" type="line"/>
    </contour>
  </outline>
</glyph>
<glyph name="divide" format="2">
  <advance width="490"/>
  <unicode hex="00F7"/>
  <outline>
    <contour>
      <point x="40" y="226" type="line"/>
      <point x="450" y="226" type="line"/>
      <point x="450" y="370" type="line"/>
      <point x="40" y="370" type="line"/>
    </contour>
    <contour>
      <point x="245" y="50" type="curve" smooth="yes"/>
      <point x="284" y="50"/>
      <point x="318" y="84"/>
      <point x="318" y="123" type="curve" smooth="yes"/>
      <point x="318" y="162"/>
      <point x="284" y="196"/>
      <point x="245" y="196" type="curve" smooth="yes"/>
      <point x="206" y="196"/>
      <point x="173" y="162"/>
      <point x="173" y="123" type="curve" smooth="yes"/>
      <point x="173" y="84"/>
      <point x="206" y="50"/>
    </contour>
    <contour>
      <point x="245" y="400" type="curve" smooth="yes"/>
      <point x="284" y="400"/>
      <point x="317" y="433"/>
      <point x="317" y="472" type="curve" smooth="yes"/>
      <point x="317" y="511"/>
      <point x="284" y="545"/>
      <point x="245" y="545" type="curve" smooth="yes"/>
      <point x="206" y="545"/>
      <point x="172" y="511"/>
      <point x="172" y="472" type="curve" smooth="yes"/>
      <point x="172" y="433"/>
      <point x="206" y="400"/>
    </contour>
  </outline>
</glyph>
<glyph name="oslash" format="2">
  <advance width="578"/>
  <unicode hex="00F8"/>
  <anchor x="281" y="0" name="bottom"/>
  <anchor x="281" y="250" name="center"/>
  <anchor x="521" y="10" name="ogonek"/>
  <anchor x="281" y="500" name="top"/>
  <anchor x="561" y="500" name="topright"/>
  <outline>
    <contour>
      <point x="7" y="0" type="line"/>
      <point x="148" y="0" type="line"/>
      <point x="571" y="500" type="line"/>
      <point x="429" y="500" type="line"/>
    </contour>
    <component base="o" xOffset="-5"/>
  </outline>
</glyph>
<glyph name="thorn" format="2">
  <advance width="605"/>
  <unicode hex="00FE"/>
  <outline>
    <contour>
      <point x="45" y="-200" type="line"/>
      <point x="225" y="-200" type="line"/>
      <point x="225" y="700" type="line"/>
      <point x="45" y="700" type="line"/>
    </contour>
    <component base="Bowl" xScale="-1.0" xOffset="596.0"/>
  </outline>
</glyph>
<glyph name="dcroat" format="2">
  <advance width="604"/>
  <unicode hex="0111"/>
  <anchor x="459" y="700" name="top"/>
  <anchor x="560" y="700" name="top_caron"/>
  <outline>
    <contour>
      <point x="260" y="545" type="line"/>
      <point x="614" y="545" type="line"/>
      <point x="614" y="650" type="line"/>
      <point x="260" y="650" type="line"/>
    </contour>
    <component base="d"/>
  </outline>
</glyph>
<glyph name="Hbar" format="2">
  <advance width="748"/>
  <unicode hex="0126"/>
  <outline>
    <contour>
      <point x="5" y="504" type="line"/>
      <point x="743" y="504" type="line"/>
      <point x="743" y="631" type="line"/>
      <point x="5" y="631" type="line"/>
    </contour>
    <component base="H"/>
  </outline>
</glyph>
<glyph name="hbar" format="2">
  <advance width="580"/>
  <unicode hex="0127"/>
  <outline>
    <contour>
      <point x="0" y="545" type="line"/>
      <point x="354" y="545" type="line"/>
      <point x="354" y="650" type="line"/>
      <point x="0" y="650" type="line"/>
    </contour>
    <component base="h"/>
  </outline>
</glyph>
<glyph name="Lslash" format="2">
  <advance width="553"/>
  <unicode hex="0141"/>
  <anchor x="287" y="0" name="bottom"/>
  <anchor x="277" y="350" name="center"/>
  <anchor x="153" y="700" name="top"/>
  <anchor x="257" y="759" name="top_caron"/>
  <anchor x="533" y="700" name="topright"/>
  <outline>
    <contour>
      <point x="0" y="221" type="line"/>
      <point x="334" y="402" type="line"/>
      <point x="334" y="550" type="line"/>
      <point x="0" y="369" type="line"/>
    </contour>
    <component base="L"/>
  </outline>
</glyph>
<glyph name="lslash" format="2">
  <advance width="290"/>
  <unicode hex="0142"/>
  <anchor x="145" y="0" name="bottom"/>
  <anchor x="145" y="700" name="top"/>
  <anchor x="237" y="700" name="top_caron"/>
  <outline>
    <contour>
      <point x="0" y="204" type="line"/>
      <point x="290" y="358" type="line"/>
      <point x="290" y="496" type="line"/>
      <point x="0" y="342" type="line"/>
    </contour>
    <component base="l" xOffset="10"/>
  </outline>
</glyph>
<glyph name="Eng" format="2">
  <advance width="773"/>
  <unicode hex="014A"/>
  <anchor x="623" y="500" name="top"/>
  <anchor x="389" y="0" name="bottom"/>
  <outline>
    <contour>
      <point x="509" y="-215" type="curve" smooth="yes"/>
      <point x="637" y="-215"/>
      <point x="713" y="-143"/>
      <point x="713" y="-21" type="curve" smooth="yes"/>
      <point x="713" y="0" type="line"/>
      <point x="528" y="0" type="line"/>
      <point x="528" y="-7" type="line" smooth="yes"/>
      <point x="528" y="-32"/>
      <point x="517" y="-47"/>
      <point x="499" y="-47" type="curve" smooth="yes"/>
      <point x="486" y="-47"/>
      <point x="471" y="-41"/>
      <point x="459" y="-31" type="curve"/>
      <point x="385" y="-180" type="line"/>
      <point x="415" y="-202"/>
      <point x="461" y="-215"/>
    </contour>
    <component base="N"/>
  </outline>
</glyph>
<glyph name="eng" format="2">
  <advance width="578"/>
  <unicode hex="014B"/>
  <anchor x="448" y="500" name="top"/>
  <anchor x="284" y="0" name="bottom"/>
  <outline>
    <contour>
      <point x="337" y="-215" type="curve" smooth="yes"/>
      <point x="463" y="-215"/>
      <point x="538" y="-143"/>
      <point x="538" y="-21" type="curve" smooth="yes"/>
      <point x="538" y="0" type="line"/>
      <point x="358" y="0" type="line"/>
      <point x="358" y="-7" type="line" smooth="yes"/>
      <point x="358" y="-32"/>
      <point x="347" y="-47"/>
      <point x="329" y="-47" type="curve" smooth="yes"/>
      <point x="316" y="-47"/>
      <point x="301" y="-41"/>
      <point x="289" y="-31" type="curve"/>
      <point x="215" y="-180" type="line"/>
      <point x="245" y="-202"/>
      <point x="290" y="-215"/>
    </contour>
    <component base="n"/>
  </outline>
</glyph>
<glyph name="OE" format="2">
  <advance width="1096"/>
  <unicode hex="0152"/>
  <anchor x="399" y="0" name="bottom"/>
  <anchor x="399" y="350" name="center"/>
  <anchor x="721" y="10" name="ogonek"/>
  <anchor x="399" y="700" name="top"/>
  <anchor x="15" y="700" name="topleft"/>
  <anchor x="782" y="700" name="topright"/>
  <outline>
    <contour>
      <point x="400" y="-12" type="curve" smooth="yes"/>
      <point x="590" y="-12"/>
      <point x="724" y="140"/>
      <point x="724" y="354" type="curve" smooth="yes"/>
      <point x="724" y="563"/>
      <point x="589" y="711"/>
      <point x="398" y="711" type="curve" smooth="yes"/>
      <point x="180" y="711"/>
      <point x="25" y="561"/>
      <point x="25" y="349" type="curve" smooth="yes"/>
      <point x="25" y="138"/>
      <point x="180" y="-12"/>
    </contour>
    <contour>
      <point x="400" y="163" type="curve" smooth="yes"/>
      <point x="295" y="163"/>
      <point x="220" y="240"/>
      <point x="220" y="349" type="curve" smooth="yes"/>
      <point x="220" y="459"/>
      <point x="294" y="536"/>
      <point x="398" y="536" type="curve" smooth="yes"/>
      <point x="500" y="536"/>
      <point x="571" y="459"/>
      <point x="571" y="349" type="curve" smooth="yes"/>
      <point x="571" y="240"/>
      <point x="501" y="163"/>
    </contour>
    <component base="E" xOffset="510"/>
  </outline>
</glyph>
<glyph name="jdotless" format="2">
  <advance width="298"/>
  <unicode hex="0237"/>
  <anchor x="163" y="500" name="top"/>
  <outline>
    <contour>
      <point x="52" y="-215" type="curve" smooth="yes"/>
      <point x="178" y="-215"/>
      <point x="253" y="-143"/>
      <point x="253" y="-21" type="curve" smooth="yes"/>
      <point x="253" y="500" type="line"/>
      <point x="73" y="500" type="line"/>
      <point x="73" y="-7" type="line" smooth="yes"/>
      <point x="73" y="-32"/>
      <point x="62" y="-47"/>
      <point x="44" y="-47" type="curve" smooth="yes"/>
      <point x="31" y="-47"/>
      <point x="16" y="-41"/>
      <point x="4" y="-31" type="curve"/>
      <point x="-70" y="-180" type="line"/>
      <point x="-40" y="-202"/>
      <point x="5" y="-215"/>
    </contour>
  </outline>
</glyph>
<glyph name="gravecomb" format="2">
  <unicode hex="0300"/>
  <anchor x="228" y="500" name="_top"/>
  <anchor x="228" y="500" name="top"/>
  <outline>
    <contour>
      <point x="170" y="554" type="line"/>
      <point x="340" y="554" type="line"/>
      <point x="228" y="701" type="line"/>
      <point x="38" y="701" type="line"/>
    </contour>
  </outline>
</glyph>
<glyph name="acutecomb" format="2">
  <unicode hex="0301"/>
  <anchor x="348" y="500" name="_top"/>
  <anchor x="348" y="500" name="top"/>
  <outline>
    <contour>
      <point x="249" y="554" type="line"/>
      <point x="419" y="554" type="line"/>
      <point x="549" y="700" type="line"/>
      <point x="359" y="700" type="line"/>
    </contour>
  </outline>
</glyph>
<glyph name="circumflexcomb" format="2">
  <unicode hex="0302"/>
  <anchor x="228" y="500" name="_top"/>
  <outline>
    <contour>
      <point x="285" y="565" type="line"/>
      <point x="435" y="565" type="line"/>
      <point x="308" y="712" type="line"/>
      <point x="138" y="712" type="line"/>
      <point x="138" y="699" type="line"/>
    </contour>
    <contour>
      <point x="10" y="565" type="line"/>
      <point x="160" y="565" type="line"/>
      <point x="307" y="699" type="line"/>
      <point x="307" y="712" type="line"/>
      <point x="137" y="712" type="line"/>
    </contour>
  </outline>
</glyph>
<glyph name="tildecomb" format="2">
  <unicode hex="0303"/>
  <anchor x="270" y="500" name="_top"/>
  <anchor x="270" y="700" name="top"/>
  <outline>
    <contour>
      <point x="351" y="534" type="curve" smooth="yes"/>
      <point x="436" y="534"/>
      <point x="475" y="586"/>
      <point x="487" y="679" type="curve"/>
      <point x="376" y="679" type="line"/>
      <point x="373" y="658"/>
      <point x="369" y="640"/>
      <point x="350" y="640" type="curve" smooth="yes"/>
      <point x="311" y="640"/>
      <point x="316" y="712"/>
      <point x="207" y="712" type="curve" smooth="yes"/>
      <point x="126" y="712"/>
      <point x="83" y="673"/>
      <point x="71" y="567" type="curve"/>
      <point x="182" y="567" type="line"/>
      <point x="190" y="602"/>
      <point x="203" y="606"/>
      <point x="213" y="606" type="curve" smooth="yes"/>
      <point x="258" y="606"/>
      <point x="250" y="534"/>
    </contour>
  </outline>
</glyph>
<glyph name="macroncomb" format="2">
  <unicode hex="0304"/>
  <anchor x="150" y="500" name="_top"/>
  <outline>
    <contour>
      <point x="-20" y="549" type="line"/>
      <point x="320" y="549" type="line"/>
      <point x="320" y="700" type="line"/>
      <point x="-20" y="700" type="line"/>
    </contour>
  </outline>
</glyph>
<glyph name="brevecomb" format="2">
  <unicode hex="0306"/>
  <anchor x="202" y="500" name="_top"/>
  <outline>
    <contour>
      <point x="203" y="542" type="curve" smooth="yes"/>
      <point x="321" y="542"/>
      <point x="405" y="607"/>
      <point x="405" y="700" type="curve"/>
      <point x="241" y="700" type="line"/>
      <point x="241" y="677"/>
      <point x="225" y="661"/>
      <point x="203" y="661" type="curve" smooth="yes"/>
      <point x="180" y="661"/>
      <point x="164" y="677"/>
      <point x="164" y="700" type="curve"/>
      <point x="0" y="700" type="line"/>
      <point x="0" y="607"/>
      <point x="84" y="542"/>
    </contour>
  </outline>
</glyph>
<glyph name="dieresiscomb" format="2">
  <unicode hex="0308"/>
  <anchor x="280" y="500" name="_top"/>
  <anchor x="280" y="748" name="top"/>
  <outline>
    <contour>
      <point x="415" y="569" type="curve" smooth="yes"/>
      <point x="462" y="569"/>
      <point x="503" y="610"/>
      <point x="503" y="657" type="curve" smooth="yes"/>
      <point x="503" y="704"/>
      <point x="462" y="745"/>
      <point x="415" y="745" type="curve" smooth="yes"/>
      <point x="368" y="745"/>
      <point x="327" y="704"/>
      <point x="327" y="657" type="curve" smooth="yes"/>
      <point x="327" y="610"/>
      <point x="368" y="569"/>
    </contour>
    <contour>
      <point x="145" y="569" type="curve" smooth="yes"/>
      <point x="193" y="569"/>
      <point x="233" y="609"/>
      <point x="233" y="657" type="curve" smooth="yes"/>
      <point x="233" y="705"/>
      <point x="193" y="745"/>
      <point x="145" y="745" type="curve" smooth="yes"/>
      <point x="97" y="745"/>
      <point x="57" y="705"/>
      <point x="57" y="657" type="curve" smooth="yes"/>
      <point x="57" y="609"/>
      <point x="97" y="569"/>
    </contour>
  </outline>
</glyph>
<glyph name="hungarumlautcomb" format="2">
  <unicode hex="030B"/>
  <anchor x="190" y="500" name="_top"/>
  <outline>
    <contour>
      <point x="234" y="554" type="line"/>
      <point x="382" y="554" type="line"/>
      <point x="504" y="700" type="line"/>
      <point x="334" y="700" type="line"/>
    </contour>
    <contour>
      <point x="4" y="554" type="line"/>
      <point x="150" y="554" type="line"/>
      <point x="270" y="700" type="line"/>
      <point x="100" y="700" type="line"/>
    </contour>
  </outline>
</glyph>
<glyph name="caroncomb" format="2">
  <unicode hex="030C"/>
  <anchor x="228" y="500" name="_top"/>
  <outline>
    <contour>
      <point x="148" y="554" type="line"/>
      <point x="308" y="554" type="line"/>
      <point x="435" y="700" type="line"/>
      <point x="285" y="700" type="line"/>
      <point x="148" y="559" type="line"/>
    </contour>
    <contour>
      <point x="137" y="554" type="line"/>
      <point x="297" y="554" type="line"/>
      <point x="297" y="559" type="line"/>
      <point x="160" y="700" type="line"/>
      <point x="10" y="700" type="line"/>
    </contour>
  </outline>
</glyph>
<glyph name="commaaccentcomb" format="2">
  <unicode hex="0326"/>
  <anchor x="145" y="0" name="_bottom"/>
  <outline>
    <contour>
      <point x="26" y="-200" type="line"/>
      <point x="156" y="-200" type="line"/>
      <point x="240" y="-40" type="line"/>
      <point x="72" y="-40" type="line"/>
    </contour>
  </outline>
</glyph>
<glyph name="cedillacomb" format="2">
  <unicode hex="0327"/>
  <anchor x="310" y="0" name="_bottom"/>
  <outline>
    <contour>
      <point x="256" y="-210" type="curve" smooth="yes"/>
      <point x="343" y="-210"/>
      <point x="394" y="-172"/>
      <point x="394" y="-108" type="curve" smooth="yes"/>
      <point x="394" y="-72"/>
      <point x="367" y="-41"/>
      <point x="322" y="-26" type="curve"/>
      <point x="337" y="6" type="line"/>
      <point x="240" y="6" type="line"/>
      <point x="210" y="-69" type="line"/>
      <point x="245" y="-69"/>
      <point x="265" y="-80"/>
      <point x="265" y="-98" type="curve" smooth="yes"/>
      <point x="265" y="-110"/>
      <point x="251" y="-117"/>
      <point x="228" y="-117" type="curve" smooth="yes"/>
      <point x="217" y="-117"/>
      <point x="200" y="-112"/>
      <point x="181" y="-103" type="curve"/>
      <point x="160" y="-179" type="line"/>
      <point x="188" y="-198"/>
      <point x="224" y="-210"/>
    </contour>
  </outline>
</glyph>
<glyph name="ogonekcomb" format="2">
  <unicode hex="0328"/>
  <anchor x="225" y="0" name="_ogonek"/>
  <outline>
    <contour>
      <point x="176" y="-212" type="curve" smooth="yes"/>
      <point x="209" y="-212"/>
      <point x="234" y="-208"/>
      <point x="254" y="-196" type="curve"/>
      <point x="202" y="-88" type="line"/>
      <point x="195" y="-92"/>
      <point x="188" y="-95"/>
      <point x="177" y="-95" type="curve" smooth="yes"/>
      <point x="166" y="-95"/>
      <point x="159" y="-86"/>
      <point x="159" y="-75" type="curve"/>
      <point x="159" y="-52"/>
      <point x="179" y="-23"/>
      <point x="215" y="0" type="curve"/>
      <point x="77" y="0" type="line"/>
      <point x="46" y="-16"/>
      <point x="20" y="-49"/>
      <point x="20" y="-88" type="curve" smooth="yes"/>
      <point x="20" y="-170"/>
      <point x="92" y="-212"/>
    </contour>
  </outline>
</glyph>
<glyph name="Germandbls" format="2">
  <advance width="684"/>
  <unicode hex="1E9E"/>
  <outline>
    <contour>
      <point x="416" y="-12" type="curve" smooth="yes"/>
      <point x="574" y="-12"/>
      <point x="659" y="67"/>
      <point x="659" y="202" type="curve" smooth="yes"/>
      <point x="659" y="294"/>
      <point x="618" y="360"/>
      <point x="527" y="390" type="curve"/>
      <point x="656" y="578" type="line"/>
      <point x="586" y="642"/>
      <point x="462" y="712"/>
      <point x="329" y="712" type="curve" smooth="yes"/>
      <point x="160" y="712"/>
      <point x="60" y="649"/>
      <point x="60" y="543" type="curve" smooth="yes"/>
      <point x="60" y="0" type="line"/>
      <point x="250" y="0" type="line"/>
      <point x="250" y="485" type="line" smooth="yes"/>
      <point x="250" y="523"/>
      <point x="275" y="546"/>
      <point x="316" y="546" type="curve" smooth="yes"/>
      <point x="354" y="546"/>
      <point x="388" y="539"/>
      <point x="419" y="528" type="curve"/>
      <point x="329" y="409" type="line"/>
      <point x="329" y="286" type="line"/>
      <point x="390" y="286" type="line" smooth="yes"/>
      <point x="459" y="286"/>
      <point x="478" y="271"/>
      <point x="478" y="234" type="curve" smooth="yes"/>
      <point x="478" y="190"/>
      <point x="440" y="164"/>
      <point x="400" y="164" type="curve" smooth="yes"/>
      <point x="372" y="164"/>
      <point x="351" y="169"/>
      <point x="336" y="176" type="curve"/>
      <point x="305" y="6" type="line"/>
      <point x="342" y="-8"/>
      <point x="391" y="-12"/>
    </contour>
  </outline>
</glyph>
<glyph name="endash" format="2">
  <advance width="550"/>
  <unicode hex="2013"/>
  <outline>
    <contour>
      <point x="0" y="223" type="line"/>
      <point x="550" y="223" type="line"/>
      <point x="550" y="373" type="line"/>
      <point x="0" y="373" type="line"/>
    </contour>
  </outline>
</glyph>
<glyph name="emdash" format="2">
  <advance width="1100"/>
  <unicode hex="2014"/>
  <outline>
    <contour>
      <point x="0" y="223" type="line"/>
      <point x="1100" y="223" type="line"/>
      <point x="1100" y="373" type="line"/>
      <point x="0" y="373" type="line"/>
    </contour>
  </outline>
</glyph>
<glyph name="dagger" format="2">
  <advance width="494"/>
  <unicode hex="2020"/>
  <outline>
    <contour>
      <point x="156" y="0" type="line"/>
      <point x="338" y="0" type="line"/>
      <point x="293" y="429" type="line"/>
      <point x="328" y="700" type="line"/>
      <point x="166" y="700" type="line"/>
      <point x="201" y="429" type="line"/>
    </contour>
    <contour>
      <point x="32" y="346" type="line"/>
      <point x="247" y="381" type="line"/>
      <point x="461" y="346" type="line"/>
      <point x="461" y="512" type="line"/>
      <point x="247" y="477" type="line"/>
      <point x="32" y="512" type="line"/>
    </contour>
  </outline>
</glyph>
<glyph name="daggerdbl" format="2">
  <advance width="494"/>
  <unicode hex="2021"/>
  <outline>
    <contour>
      <point x="153" y="-200" type="line"/>
      <point x="335" y="-200" type="line"/>
      <point x="290" y="71" type="line"/>
      <point x="315" y="250" type="line"/>
      <point x="290" y="429" type="line"/>
      <point x="325" y="700" type="line"/>
      <point x="163" y="700" type="line"/>
      <point x="198" y="429" type="line"/>
      <point x="173" y="250" type="line"/>
      <point x="198" y="71" type="line"/>
    </contour>
    <contour>
      <point x="35" y="-7" type="line"/>
      <point x="250" y="23" type="line"/>
      <point x="464" y="-7" type="line"/>
      <point x="464" y="149" type="line"/>
      <point x="250" y="119" type="line"/>
      <point x="35" y="149" type="line"/>
    </contour>
    <contour>
      <point x="29" y="351" type="line"/>
      <point x="244" y="381" type="line"/>
      <point x="458" y="351" type="line"/>
      <point x="458" y="507" type="line"/>
      <point x="244" y="477" type="line"/>
      <point x="29" y="507" type="line"/>
    </contour>
  </outline>
</glyph>
<glyph name="bullet" format="2">
  <advance width="449"/>
  <unicode hex="2022"/>
  <outline>
    <contour>
      <point x="224" y="155" type="curve" smooth="yes"/>
      <point x="299" y="155"/>
      <point x="359" y="214"/>
      <point x="359" y="288" type="curve" smooth="yes"/>
      <point x="359" y="361"/>
      <point x="299" y="420"/>
      <point x="224" y="420" type="curve" smooth="yes"/>
      <point x="150" y="420"/>
      <point x="90" y="361"/>
      <point x="90" y="288" type="curve" smooth="yes"/>
      <point x="90" y="214"/>
      <point x="150" y="155"/>
    </contour>
  </outline>
</glyph>
<glyph name="guilsinglleft" format="2">
  <advance width="438"/>
  <unicode hex="2039"/>
  <outline>
    <contour>
      <point x="45" y="298" type="line"/>
      <point x="255" y="298" type="line"/>
      <point x="388" y="500" type="line"/>
      <point x="187" y="500" type="line"/>
    </contour>
    <contour>
      <point x="187" y="96" type="line"/>
      <point x="388" y="96" type="line"/>
      <point x="255" y="298" type="line"/>
      <point x="45" y="298" type="line"/>
    </contour>
  </outline>
</glyph>
<glyph name="euro" format="2">
  <advance width="725"/>
  <unicode hex="20AC"/>
  <outline>
    <contour>
      <point x="414" y="-12" type="curve" smooth="yes"/>
      <point x="559" y="-12"/>
      <point x="666" y="74"/>
      <point x="710" y="201" type="curve"/>
      <point x="545" y="257" type="line"/>
      <point x="519" y="197"/>
      <point x="483" y="158"/>
      <point x="416" y="158" type="curve" smooth="yes"/>
      <point x="331" y="158"/>
      <point x="270" y="237"/>
      <point x="270" y="350" type="curve" smooth="yes"/>
      <point x="270" y="463"/>
      <point x="330" y="542"/>
      <point x="414" y="542" type="curve" smooth="yes"/>
      <point x="476" y="542"/>
      <point x="519" y="504"/>
      <point x="544" y="444" type="curve"/>
      <point x="708" y="500" type="line"/>
      <point x="663" y="626"/>
      <point x="557" y="712"/>
      <point x="414" y="712" type="curve" smooth="yes"/>
      <point x="217" y="712"/>
      <point x="80" y="562"/>
      <point x="80" y="350" type="curve" smooth="yes"/>
      <point x="80" y="138"/>
      <point x="217" y="-12"/>
    </contour>
    <contour>
      <point x="10" y="254" type="line"/>
      <point x="485" y="254" type="line"/>
      <point x="485" y="336" type="line"/>
      <point x="10" y="336" type="line"/>
    </contour>
    <contour>
      <point x="10" y="364" type="line"/>
      <point x="485" y="364" type="line"/>
      <point x="485" y="446" type="line"/>
      <point x="10" y="446" type="line"/>
    </contour>
  </outline>
</glyph>
<glyph name="trademark" format="2">
  <advance width="899"/>
  <unicode hex="2122"/>
  <outline>
    <contour>
      <point x="127" y="280" type="line"/>
      <point x="250" y="280" type="line"/>
      <point x="250" y="665" type="line"/>
      <point x="127" y="665" type="line"/>
    </contour>
    <contour>
      <point x="11" y="587" type="line"/>
      <point x="365" y="587" type="line"/>
      <point x="365" y="700" type="line"/>
      <point x="11" y="700" type="line"/>
    </contour>
    <contour>
      <point x="408" y="280" type="line"/>
      <point x="531" y="280" type="line"/>
      <point x="531" y="700" type="line"/>
      <point x="408" y="700" type="line"/>
    </contour>
    <contour>
      <point x="638" y="357" type="line"/>
      <point x="701" y="469" type="line"/>
      <point x="545" y="700" type="line"/>
      <point x="468" y="702" type="line"/>
      <point x="406" y="690" type="line"/>
    </contour>
    <contour>
      <point x="638" y="357" type="line"/>
      <point x="869" y="692" type="line"/>
      <point x="809" y="702" type="line"/>
      <point x="730" y="700" type="line"/>
      <point x="574" y="469" type="line"/>
    </contour>
    <contour>
      <point x="744" y="280" type="line"/>
      <point x="867" y="280" type="line"/>
      <point x="867" y="700" type="line"/>
      <point x="744" y="700" type="line"/>
    </contour>
  </outline>
</glyph>
<glyph name="northEastArrow" format="2">
  <advance width="628"/>
  <unicode hex="2197"/>
  <outline>
    <contour>
      <point x="166" y="191" type="line"/>
      <point x="555" y="580" type="line"/>
      <point x="449" y="686" type="line"/>
      <point x="60" y="297" type="line"/>
    </contour>
    <contour>
      <point x="168" y="554" type="line"/>
      <point x="531" y="556" type="line"/>
      <point x="568" y="700" type="line"/>
      <point x="168" y="700" type="line"/>
    </contour>
    <contour>
      <point x="422" y="300" type="line"/>
      <point x="568" y="300" type="line"/>
      <point x="568" y="700" type="line"/>
      <point x="424" y="663" type="line"/>
    </contour>
  </outline>
</glyph>
<glyph name="minus" format="2">
  <advance width="450"/>
  <unicode hex="2212"/>
  <outline>
    <contour>
      <point x="40" y="226" type="line"/>
      <point x="410" y="226" type="line"/>
      <point x="410" y="370" type="line"/>
      <point x="40" y="370" type="line"/>
    </contour>
  </outline>
</glyph>
<glyph name="divisionslash" format="2">
  <advance width="604"/>
  <unicode hex="2215"/>
  <outline>
    <contour>
      <point x="491" y="700" type="line"/>
      <point x="10" y="0" type="line"/>
      <point x="113" y="0" type="line"/>
      <point x="594" y="700" type="line"/>
    </contour>
  </outline>
</glyph>
<glyph name="notequal" format="2">
  <advance width="560"/>
  <unicode hex="2260"/>
  <outline>
    <contour>
      <point x="80" y="74" type="line"/>
      <point x="212" y="74" type="line"/>
      <point x="475" y="586" type="line"/>
      <point x="343" y="586" type="line"/>
    </contour>
    <component base="equal" yOffset="33"/>
  </outline>
</glyph>
<glyph name="lessequal" format="2">
  <advance width="521"/>
  <unicode hex="2264"/>
  <outline>
    <contour>
      <point x="50" y="0" type="line"/>
      <point x="451" y="0" type="line"/>
      <point x="451" y="120" type="line"/>
      <point x="50" y="120" type="line"/>
    </contour>
    <component base="less" yScale="0.9" yOffset="90.0"/>
  </outline>
</glyph>
<glyph name="greaterequal" format="2">
  <advance width="640"/>
  <unicode hex="2265"/>
  <outline>
    <contour>
      <point x="120" y="0" type="line"/>
      <point x="521" y="0" type="line"/>
      <point x="521" y="120" type="line"/>
      <point x="120" y="120" type="line"/>
    </contour>
    <contour>
      <point x="120" y="144" type="line"/>
      <point x="521" y="296" type="line"/>
      <point x="521" y="418" type="line"/>
      <point x="120" y="285" type="line"/>
    </contour>
    <contour>
      <point x="521" y="301" type="line"/>
      <point x="521" y="422" type="line"/>
      <point x="120" y="572" type="line"/>
      <point x="120" y="431" type="line"/>
    </contour>
  </outline>
</glyph>
<glyph name="I.ss02" format="2">
  <advance width="465"/>
  <anchor x="235" y="0" name="bottom"/>
  <anchor x="335" y="0" name="ogonek"/>
  <anchor x="235" y="700" name="top"/>
  <anchor x="90" y="700" name="topleft"/>
  <outline>
    <contour>
      <point x="30" y="0" type="line"/>
      <point x="435" y="0" type="line"/>
      <point x="435" y="170" type="line"/>
      <point x="325" y="170" type="line"/>
      <point x="325" y="530" type="line"/>
      <point x="435" y="530" type="line"/>
      <point x="435" y="700" type="line"/>
      <point x="30" y="700" type="line"/>
      <point x="30" y="530" type="line"/>
      <point x="140" y="530" type="line"/>
      <point x="140" y="170" type="line"/>
      <point x="30" y="170" type="line"/>
    </contour>
  </outline>
</glyph>
<glyph name="Idieresis.ss02" format="2">
  <advance width="465"/>
  <anchor x="245" y="700" name="_top"/>
  <anchor x="245" y="948" name="top"/>
  <anchor x="235" y="0" name="bottom"/>
  <anchor x="335" y="0" name="ogonek"/>
  <anchor x="90" y="700" name="topleft"/>
  <outline>
    <contour>
      <point x="345" y="769" type="curve" smooth="yes"/>
      <point x="392" y="769"/>
      <point x="433" y="810"/>
      <point x="433" y="857" type="curve" smooth="yes"/>
      <point x="433" y="904"/>
      <point x="392" y="945"/>
      <point x="345" y="945" type="curve" smooth="yes"/>
      <point x="298" y="945"/>
      <point x="257" y="904"/>
      <point x="257" y="857" type="curve" smooth="yes"/>
      <point x="257" y="810"/>
      <point x="298" y="769"/>
    </contour>
    <contour>
      <point x="145" y="769" type="curve" smooth="yes"/>
      <point x="193" y="769"/>
      <point x="233" y="809"/>
      <point x="233" y="857" type="curve" smooth="yes"/>
      <point x="233" y="905"/>
      <point x="193" y="945"/>
      <point x="145" y="945" type="curve" smooth="yes"/>
      <point x="97" y="945"/>
      <point x="57" y="905"/>
      <point x="57" y="857" type="curve" smooth="yes"/>
      <point x="57" y="809"/>
      <point x="97" y="769"/>
    </contour>
    <component base="I.ss02"/>
  </outline>
</glyph>
<glyph name=".notdef" format="2">
  <advance width="708"/>
  <outline>
    <contour>
      <point x="100" y="-170" type="line"/>
      <point x="608" y="-170" type="line"/>
      <point x="608" y="790" type="line"/>
      <point x="100" y="790" type="line"/>
    </contour>
    <contour>
      <point x="158" y="-112" type="line"/>
      <point x="158" y="732" type="line"/>
      <point x="550" y="732" type="line"/>
      <point x="550" y="-112" type="line"/>
    </contour>
  </outline>
</glyph>
<glyph name="a.001" format="2">
  <advance width="554"/>
  <outline>
    <contour>
      <point x="345" y="0" type="line"/>
      <point x="514" y="0" type="line"/>
      <point x="514" y="285" type="line" smooth="yes"/>
      <point x="514" y="423"/>
      <point x="409" y="520"/>
      <point x="261" y="520" type="curve" smooth="yes"/>
      <point x="172" y="520"/>
      <point x="75" y="481"/>
      <point x="28" y="426" type="curve"/>
      <point x="130" y="317" type="line"/>
      <point x="172" y="348"/>
      <point x="220" y="363"/>
      <point x="254" y="363" type="curve" smooth="yes"/>
      <point x="314" y="363"/>
      <point x="345" y="316"/>
      <point x="345" y="249" type="curve" smooth="yes"/>
    </contour>
    <contour>
      <point x="217" y="-16" type="curve" smooth="yes"/>
      <point x="284" y="-16"/>
      <point x="342" y="7"/>
      <point x="373" y="47" type="curve"/>
      <point x="348" y="130" type="line"/>
      <point x="338" y="117"/>
      <point x="306" y="109"/>
      <point x="277" y="109" type="curve" smooth="yes"/>
      <point x="229" y="109"/>
      <point x="208" y="131"/>
      <point x="208" y="153" type="curve" smooth="yes"/>
      <point x="208" y="174"/>
      <point x="231" y="188"/>
      <point x="271" y="188" type="curve" smooth="yes"/>
      <point x="299" y="188"/>
      <point x="339" y="181"/>
      <point x="349" y="173" type="curve"/>
      <point x="373" y="254" type="line"/>
      <point x="335" y="287"/>
      <point x="277" y="307"/>
      <point x="217" y="307" type="curve" smooth="yes"/>
      <point x="93" y="307"/>
      <point x="20" y="245"/>
      <point x="20" y="141" type="curve" smooth="yes"/>
      <point x="20" y="42"/>
      <point x="93" y="-16"/>
    </contour>
  </outline>
</glyph>
<glyph name="a.ss01" format="2">
  <advance width="604"/>
  <anchor x="569" y="0" name="ogonek"/>
  <anchor x="288" y="500" name="top"/>
  <outline>
    <contour>
      <point x="388" y="0" type="line"/>
      <point x="559" y="0" type="line"/>
      <point x="559" y="500" type="line"/>
      <point x="379" y="500" type="line"/>
      <point x="379" y="93" type="line"/>
    </contour>
    <component base="Bowl" xOffset="9"/>
  </outline>
</glyph>
<glyph name="arch" format="2">
  <advance width="355"/>
  <outline>
    <contour>
      <point x="175" y="256" type="curve"/>
      <point x="355" y="256" type="line"/>
      <point x="355" y="286" type="line"/>
      <point x="355" y="440"/>
      <point x="297" y="512"/>
      <point x="175" y="512" type="curve" smooth="yes"/>
      <point x="71" y="512"/>
      <point x="-7" y="424"/>
      <point x="-7" y="266" type="curve"/>
      <point x="42" y="266" type="line"/>
      <point x="42" y="320"/>
      <point x="67" y="345"/>
      <point x="118" y="343" type="curve" smooth="yes"/>
      <point x="156" y="341"/>
      <point x="175" y="313"/>
    </contour>
  </outline>
</glyph>
<glyph name="eight.numr" format="2">
  <advance width="378"/>
  <outline>
    <contour>
      <point x="188" y="273" type="curve" smooth="yes"/>
      <point x="302" y="273"/>
      <point x="357" y="320"/>
      <point x="357" y="389" type="curve" smooth="yes"/>
      <point x="357" y="466"/>
      <point x="303" y="519"/>
      <point x="188" y="519" type="curve" smooth="yes"/>
      <point x="73" y="519"/>
      <point x="21" y="466"/>
      <point x="21" y="389" type="curve" smooth="yes"/>
      <point x="21" y="320"/>
      <point x="74" y="273"/>
    </contour>
    <contour>
      <point x="188" y="373" type="curve" smooth="yes"/>
      <point x="165" y="373"/>
      <point x="148" y="388"/>
      <point x="148" y="408" type="curve" smooth="yes"/>
      <point x="148" y="433"/>
      <point x="165" y="450"/>
      <point x="188" y="450" type="curve" smooth="yes"/>
      <point x="212" y="450"/>
      <point x="230" y="433"/>
      <point x="230" y="408" type="curve" smooth="yes"/>
      <point x="230" y="388"/>
      <point x="212" y="373"/>
    </contour>
    <contour>
      <point x="188" y="540" type="curve" smooth="yes"/>
      <point x="166" y="540"/>
      <point x="152" y="556"/>
      <point x="152" y="578" type="curve" smooth="yes"/>
      <point x="152" y="597"/>
      <point x="166" y="612"/>
      <point x="188" y="612" type="curve" smooth="yes"/>
      <point x="210" y="612"/>
      <point x="226" y="597"/>
      <point x="226" y="578" type="curve" smooth="yes"/>
      <point x="226" y="556"/>
      <point x="210" y="540"/>
    </contour>
    <contour>
      <point x="188" y="482" type="curve" smooth="yes"/>
      <point x="291" y="482"/>
      <point x="345" y="527"/>
      <point x="345" y="593" type="curve" smooth="yes"/>
      <point x="345" y="660"/>
      <point x="292" y="707"/>
      <point x="188" y="707" type="curve" smooth="yes"/>
      <point x="85" y="707"/>
      <point x="32" y="660"/>
      <point x="32" y="593" type="curve" smooth="yes"/>
      <point x="32" y="527"/>
      <point x="85" y="482"/>
    </contour>
  </outline>
</glyph>
<glyph name="four.numr" format="2">
  <advance width="398"/>
  <outline>
    <contour>
      <point x="95" y="394" type="line"/>
      <point x="256" y="632" type="line"/>
      <point x="186" y="700" type="line"/>
      <point x="7" y="437" type="line"/>
    </contour>
    <contour>
      <point x="7" y="337" type="line"/>
      <point x="377" y="337" type="line"/>
      <point x="377" y="441" type="line"/>
      <point x="71" y="441" type="line"/>
      <point x="7" y="437" type="line"/>
    </contour>
    <contour>
      <point x="204" y="280" type="line"/>
      <point x="320" y="280" type="line"/>
      <point x="320" y="700" type="line"/>
      <point x="187" y="700" type="line"/>
      <point x="204" y="638" type="line"/>
    </contour>
  </outline>
</glyph>
<glyph name="l.ss02" format="2">
  <advance width="335"/>
  <anchor x="135" y="0" name="bottom"/>
  <anchor x="135" y="700" name="top"/>
  <anchor x="227" y="700" name="top_caron"/>
  <outline>
    <contour>
      <point x="219" y="-12" type="curve" smooth="yes"/>
      <point x="262" y="-12"/>
      <point x="312" y="13"/>
      <point x="340" y="40" type="curve"/>
      <point x="279" y="170" type="line"/>
      <point x="273" y="166"/>
      <point x="260" y="160"/>
      <point x="253" y="160" type="curve" smooth="yes"/>
      <point x="233" y="160"/>
      <point x="225" y="173"/>
      <point x="225" y="207" type="curve" smooth="yes"/>
      <point x="225" y="700" type="line"/>
      <point x="45" y="700" type="line"/>
      <point x="45" y="158" type="line" smooth="yes"/>
      <point x="45" y="48"/>
      <point x="101" y="-12"/>
    </contour>
  </outline>
</glyph>
<glyph name="lslash.ss02" format="2">
  <advance width="350"/>
  <anchor x="145" y="0" name="bottom"/>
  <anchor x="145" y="700" name="top"/>
  <anchor x="237" y="700" name="top_caron"/>
  <outline>
    <contour>
      <point x="0" y="204" type="line"/>
      <point x="290" y="358" type="line"/>
      <point x="290" y="496" type="line"/>
      <point x="0" y="342" type="line"/>
    </contour>
    <component base="l.ss02" xOffset="10"/>
  </outline>
</glyph>
<glyph name="macroncomb.narrow" format="2">
  <anchor x="150" y="500" name="_top"/>
  <outline>
    <contour>
      <point x="0" y="549" type="line"/>
      <point x="300" y="549" type="line"/>
      <point x="300" y="700" type="line"/>
      <point x="0" y="700" type="line"/>
    </contour>
  </outline>
</glyph>
<glyph name="nine.numr" format="2">
  <advance width="367"/>
  <outline>
    <contour>
      <point x="161" y="272" type="curve" smooth="yes"/>
      <point x="308" y="272"/>
      <point x="346" y="410"/>
      <point x="346" y="519" type="curve" smooth="yes"/>
      <point x="346" y="627"/>
      <point x="291" y="707"/>
      <point x="183" y="707" type="curve" smooth="yes"/>
      <point x="82" y="707"/>
      <point x="21" y="647"/>
      <point x="21" y="571" type="curve" smooth="yes"/>
      <point x="21" y="491"/>
      <point x="77" y="423"/>
      <point x="156" y="423" type="curve" smooth="yes"/>
      <point x="205" y="423"/>
      <point x="238" y="452"/>
      <point x="255" y="487" type="curve"/>
      <point x="230" y="499" type="line"/>
      <point x="229" y="407"/>
      <point x="197" y="379"/>
      <point x="163" y="379" type="curve" smooth="yes"/>
      <point x="147" y="379"/>
      <point x="115" y="384"/>
      <point x="91" y="400" type="curve"/>
      <point x="34" y="309" type="line"/>
      <point x="69" y="285"/>
      <point x="114" y="272"/>
    </contour>
    <contour>
      <point x="182" y="520" type="curve" smooth="yes"/>
      <point x="161" y="520"/>
      <point x="143" y="541"/>
      <point x="143" y="564" type="curve" smooth="yes"/>
      <point x="143" y="586"/>
      <point x="161" y="605"/>
      <point x="182" y="605" type="curve" smooth="yes"/>
      <point x="203" y="605"/>
      <point x="222" y="586"/>
      <point x="222" y="564" type="curve" smooth="yes"/>
      <point x="222" y="541"/>
      <point x="203" y="520"/>
    </contour>
  </outline>
</glyph>
<glyph name="ogonekcomb.alt" format="2">
  <anchor x="205" y="50" name="_ogonek"/>
  <outline>
    <contour>
      <point x="196" y="-212" type="curve" smooth="yes"/>
      <point x="229" y="-212"/>
      <point x="254" y="-208"/>
      <point x="274" y="-196" type="curve"/>
      <point x="222" y="-89" type="line"/>
      <point x="211" y="-93"/>
      <point x="201" y="-96"/>
      <point x="184" y="-96" type="curve" smooth="yes"/>
      <point x="162" y="-96"/>
      <point x="150" y="-83"/>
      <point x="150" y="-63" type="curve" smooth="yes"/>
      <point x="150" y="-31"/>
      <point x="154" y="-2"/>
      <point x="216" y="60" type="curve"/>
      <point x="186" y="60" type="line"/>
      <point x="95" y="6"/>
      <point x="20" y="-32"/>
      <point x="20" y="-104" type="curve" smooth="yes"/>
      <point x="20" y="-176"/>
      <point x="101" y="-212"/>
    </contour>
  </outline>
</glyph>
<glyph name="one.numr" format="2">
  <advance width="279"/>
  <outline>
    <contour>
      <point x="107" y="280" type="line"/>
      <point x="223" y="280" type="line"/>
      <point x="223" y="700" type="line"/>
      <point x="120" y="700" type="line"/>
      <point x="107" y="634" type="line"/>
    </contour>
    <contour>
      <point x="25" y="535" type="line"/>
      <point x="87" y="528"/>
      <point x="141" y="560"/>
      <point x="199" y="628" type="curve"/>
      <point x="120" y="701" type="line"/>
      <point x="91" y="670"/>
      <point x="58" y="643"/>
      <point x="25" y="647" type="curve"/>
    </contour>
  </outline>
</glyph>
<glyph name="one.tf" format="2">
  <advance width="640"/>
  <outline>
    <contour>
      <point x="131" y="0" type="line"/>
      <point x="586" y="0" type="line"/>
      <point x="586" y="162" type="line"/>
      <point x="131" y="162" type="line"/>
    </contour>
    <component base="one" xOffset="96"/>
  </outline>
</glyph>
<glyph name="six.numr" format="2">
  <advance width="367"/>
  <outline>
    <contour>
      <point x="184" y="273" type="curve" smooth="yes"/>
      <point x="285" y="273"/>
      <point x="346" y="332"/>
      <point x="346" y="409" type="curve" smooth="yes"/>
      <point x="346" y="488"/>
      <point x="290" y="556"/>
      <point x="211" y="556" type="curve" smooth="yes"/>
      <point x="165" y="556"/>
      <point x="131" y="531"/>
      <point x="112" y="492" type="curve"/>
      <point x="137" y="481" type="line"/>
      <point x="137" y="568"/>
      <point x="168" y="600"/>
      <point x="204" y="600" type="curve" smooth="yes"/>
      <point x="222" y="600"/>
      <point x="252" y="595"/>
      <point x="276" y="579" type="curve"/>
      <point x="333" y="670" type="line"/>
      <point x="298" y="694"/>
      <point x="254" y="707"/>
      <point x="206" y="707" type="curve" smooth="yes"/>
      <point x="59" y="707"/>
      <point x="21" y="570"/>
      <point x="21" y="460" type="curve" smooth="yes"/>
      <point x="21" y="352"/>
      <point x="76" y="273"/>
    </contour>
    <contour>
      <point x="185" y="375" type="curve" smooth="yes"/>
      <point x="164" y="375"/>
      <point x="145" y="393"/>
      <point x="145" y="416" type="curve" smooth="yes"/>
      <point x="145" y="439"/>
      <point x="164" y="459"/>
      <point x="185" y="459" type="curve" smooth="yes"/>
      <point x="206" y="459"/>
      <point x="224" y="438"/>
      <point x="224" y="416" type="curve" smooth="yes"/>
      <point x="224" y="394"/>
      <point x="206" y="375"/>
    </contour>
  </outline>
</glyph>
<glyph name="t.001" format="2">
  <advance width="425"/>
  <outline>
    <contour>
      <point x="278" y="-12" type="curve" smooth="yes"/>
      <point x="329" y="-12"/>
      <point x="387" y="8"/>
      <point x="420" y="29" type="curve"/>
      <point x="361" y="158" type="line"/>
      <point x="349" y="150"/>
      <point x="326" y="140"/>
      <point x="313" y="140" type="curve" smooth="yes"/>
      <point x="286" y="140"/>
      <point x="275" y="157"/>
      <point x="275" y="205" type="curve" smooth="yes"/>
      <point x="275" y="656" type="line"/>
      <point x="95" y="656" type="line"/>
      <point x="95" y="158" type="line" smooth="yes"/>
      <point x="95" y="48"/>
      <point x="154" y="-12"/>
    </contour>
    <contour>
      <point x="20" y="360" type="line"/>
      <point x="378" y="360" type="line"/>
      <point x="378" y="500" type="line"/>
      <point x="20" y="500" type="line"/>
    </contour>
  </outline>
</glyph>
<glyph name="three.numr" format="2">
  <advance width="355"/>
  <outline>
    <contour>
      <point x="185" y="273" type="curve" smooth="yes"/>
      <point x="259" y="273"/>
      <point x="334" y="313"/>
      <point x="334" y="391" type="curve" smooth="yes"/>
      <point x="334" y="464"/>
      <point x="245" y="516"/>
      <point x="157" y="516" type="curve" smooth="yes"/>
      <point x="119" y="516" type="line"/>
      <point x="119" y="440" type="line"/>
      <point x="162" y="440" type="line" smooth="yes"/>
      <point x="213" y="440"/>
      <point x="210" y="419"/>
      <point x="210" y="409" type="curve" smooth="yes"/>
      <point x="210" y="389"/>
      <point x="197" y="378"/>
      <point x="177" y="378" type="curve" smooth="yes"/>
      <point x="142" y="378"/>
      <point x="137" y="407"/>
      <point x="134" y="420" type="curve"/>
      <point x="14" y="399" type="line"/>
      <point x="23" y="313"/>
      <point x="96" y="273"/>
    </contour>
    <contour>
      <point x="119" y="469" type="line"/>
      <point x="157" y="469" type="line" smooth="yes"/>
      <point x="233" y="469"/>
      <point x="329" y="503"/>
      <point x="329" y="587" type="curve" smooth="yes"/>
      <point x="329" y="660"/>
      <point x="261" y="707"/>
      <point x="179" y="707" type="curve" smooth="yes"/>
      <point x="106" y="707"/>
      <point x="25" y="665"/>
      <point x="17" y="579" type="curve"/>
      <point x="136" y="558" type="line"/>
      <point x="139" y="592"/>
      <point x="159" y="602"/>
      <point x="177" y="602" type="curve" smooth="yes"/>
      <point x="193" y="602"/>
      <point x="206" y="590"/>
      <point x="206" y="573" type="curve" smooth="yes"/>
      <point x="206" y="552"/>
      <point x="201" y="538"/>
      <point x="162" y="538" type="curve" smooth="yes"/>
      <point x="119" y="538" type="line"/>
    </contour>
  </outline>
</glyph>
<glyph name="zero.numr" format="2">
  <advance width="406"/>
  <outline>
    <contour>
      <point x="203" y="273" type="curve" smooth="yes"/>
      <point x="312" y="273"/>
      <point x="388" y="361"/>
      <point x="388" y="490" type="curve" smooth="yes"/>
      <point x="388" y="619"/>
      <point x="311" y="707"/>
      <point x="202" y="707" type="curve" smooth="yes"/>
      <point x="95" y="707"/>
      <point x="18" y="619"/>
      <point x="18" y="490" type="curve" smooth="yes"/>
      <point x="18" y="361"/>
      <point x="95" y="273"/>
    </contour>
    <contour>
      <point x="203" y="385" type="curve" smooth="yes"/>
      <point x="168" y="385"/>
      <point x="144" y="429"/>
      <point x="144" y="490" type="curve" smooth="yes"/>
      <point x="144" y="552"/>
      <point x="168" y="597"/>
      <point x="202" y="597" type="curve" smooth="yes"/>
      <point x="241" y="597"/>
      <point x="268" y="552"/>
      <point x="268" y="490" type="curve" smooth="yes"/>
      <point x="268" y="428"/>
      <point x="241" y="385"/>
    </contour>
  </outline>
</glyph>
<glyph name="zero.tf.ss02" format="2">
  <advance width="640"/>
  <outline>
    <contour>
      <point x="82" y="154" type="line"/>
      <point x="233" y="154" type="line"/>
      <point x="570" y="546" type="line"/>
      <point x="418" y="546" type="line"/>
    </contour>
    <component base="zero" xOffset="-8"/>
  </outline>
</glyph>
